{
	"patcher" : 	{
		"fileversion" : 1,
		"rect" : [ 1120.0, 510.0, 300.0, 70.0 ],
		"bgcolor" : [ 1.0, 1.0, 1.0, 0.0 ],
		"bglocked" : 0,
		"defrect" : [ 623.0, 44.0, 839.0, 354.0 ],
		"openrect" : [ 0.0, 0.0, 0.0, 0.0 ],
		"openinpresentation" : 1,
		"default_fontsize" : 10.0,
		"default_fontface" : 0,
		"default_fontname" : "Verdana",
		"gridonopen" : 0,
		"gridsize" : [ 5.0, 5.0 ],
		"gridsnaponopen" : 0,
		"toolbarvisible" : 1,
		"boxanimatetime" : 200,
		"imprint" : 0,
		"enablehscroll" : 1,
		"enablevscroll" : 1,
		"devicewidth" : 0.0,
		"boxes" : [ 			{
				"box" : 				{
					"fontname" : "Monaco",
					"fontsize" : 10.0,
					"frgb" : [ 0.0, 0.0, 0.0, 1.0 ],
					"id" : "obj-13",
					"maxclass" : "comment",
					"numinlets" : 1,
					"numoutlets" : 0,
					"patching_rect" : [ 115.0, 45.0, 91.0, 20.0 ],
					"presentation" : 1,
					"presentation_rect" : [ 140.0, 45.0, 71.0, 20.0 ],
					"text" : "mult:"
				}

			}
, 			{
				"box" : 				{
					"fontname" : "Verdana",
					"fontsize" : 10.0,
					"id" : "obj-10",
					"linecount" : 3,
					"maxclass" : "newobj",
					"numinlets" : 1,
					"numoutlets" : 3,
					"outlettype" : [ "", "", "" ],
					"patching_rect" : [ 555.0, 165.0, 268.0, 43.0 ],
					"text" : "jcom.parameter mult @repetitions/allow 1 @type decimal @range/bounds 0.1 10. @range/clipmode both @description \"Delay factor.\"",
					"varname" : "hue_angle[3]"
				}

			}
, 			{
				"box" : 				{
					"fontname" : "Monaco",
					"fontsize" : 10.0,
					"id" : "obj-11",
					"maxclass" : "flonum",
					"numinlets" : 1,
					"numoutlets" : 2,
					"outlettype" : [ "float", "bang" ],
					"patching_rect" : [ 490.0, 165.0, 56.0, 20.0 ],
					"presentation" : 1,
					"presentation_rect" : [ 215.0, 45.0, 56.0, 20.0 ]
				}

			}
, 			{
				"box" : 				{
					"fontname" : "Verdana",
					"fontsize" : 10.0,
					"id" : "obj-4",
					"linecount" : 3,
					"maxclass" : "newobj",
					"numinlets" : 1,
					"numoutlets" : 2,
					"outlettype" : [ "", "" ],
					"patching_rect" : [ 180.0, 300.0, 245.0, 43.0 ],
					"text" : "jcom.return done @repetitions/allow 1 @type none @description \"Signal end of current segment.\"",
					"varname" : "hue_angle[2]"
				}

			}
, 			{
				"box" : 				{
					"fontname" : "Monaco",
					"fontsize" : 10.0,
					"frgb" : [ 0.0, 0.0, 0.0, 1.0 ],
					"id" : "obj-5",
					"maxclass" : "comment",
					"numinlets" : 1,
					"numoutlets" : 0,
					"patching_rect" : [ 115.0, 20.0, 91.0, 20.0 ],
					"presentation" : 1,
					"presentation_rect" : [ 135.0, 25.0, 71.0, 20.0 ],
					"text" : "transpose:"
				}

			}
, 			{
				"box" : 				{
					"fontname" : "Verdana",
					"fontsize" : 10.0,
					"id" : "obj-2",
					"linecount" : 3,
					"maxclass" : "newobj",
					"numinlets" : 1,
					"numoutlets" : 3,
					"outlettype" : [ "", "", "" ],
					"patching_rect" : [ 555.0, 120.0, 243.0, 43.0 ],
					"text" : "jcom.parameter transp @repetitions/allow 1 @type decimal @description \"Transposition factor.\"",
					"varname" : "hue_angle[1]"
				}

			}
, 			{
				"box" : 				{
					"fontname" : "Monaco",
					"fontsize" : 10.0,
					"id" : "obj-3",
					"maxclass" : "flonum",
					"numinlets" : 1,
					"numoutlets" : 2,
					"outlettype" : [ "float", "bang" ],
					"patching_rect" : [ 490.0, 120.0, 56.0, 20.0 ],
					"presentation" : 1,
					"presentation_rect" : [ 215.0, 25.0, 56.0, 20.0 ]
				}

			}
, 			{
				"box" : 				{
					"fontname" : "Verdana",
					"fontsize" : 10.0,
					"id" : "obj-50",
					"linecount" : 2,
					"maxclass" : "newobj",
					"numinlets" : 1,
					"numoutlets" : 3,
					"outlettype" : [ "", "", "" ],
					"patching_rect" : [ 365.0, 70.0, 434.0, 31.0 ],
					"text" : "jcom.message unit @repetitions/allow 1 @type integer @description \"Unit to be played.\"",
					"varname" : "hue_angle[11]"
				}

			}
, 			{
				"box" : 				{
					"fontname" : "Monaco",
					"fontsize" : 10.0,
					"id" : "obj-69",
					"maxclass" : "number",
					"numinlets" : 1,
					"numoutlets" : 2,
					"outlettype" : [ "int", "bang" ],
					"patching_rect" : [ 315.0, 70.0, 50.0, 20.0 ],
					"presentation" : 1,
					"presentation_rect" : [ 55.0, 25.0, 40.0, 20.0 ]
				}

			}
, 			{
				"box" : 				{
					"fontname" : "Monaco",
					"fontsize" : 10.0,
					"frgb" : [ 0.0, 0.0, 0.0, 1.0 ],
					"id" : "obj-66",
					"maxclass" : "comment",
					"numinlets" : 1,
					"numoutlets" : 0,
					"patching_rect" : [ 5.0, 20.0, 41.0, 20.0 ],
					"presentation" : 1,
					"presentation_rect" : [ 10.0, 25.0, 42.0, 20.0 ],
					"text" : "unit:"
				}

			}
, 			{
				"box" : 				{
					"fontname" : "Verdana",
					"fontsize" : 10.0,
					"id" : "obj-14",
					"maxclass" : "newobj",
					"numinlets" : 1,
					"numoutlets" : 3,
					"outlettype" : [ "", "", "" ],
					"patching_rect" : [ 365.0, 45.0, 462.0, 19.0 ],
					"text" : "jcom.message initialize @repetitions/allow 1 @type none @description \"Init this.\"",
					"varname" : "hue_angle[10]"
				}

			}
, 			{
				"box" : 				{
					"fontname" : "Arial",
					"fontsize" : 14.0,
					"id" : "obj-44",
					"maxclass" : "newobj",
					"numinlets" : 0,
					"numoutlets" : 0,
					"patcher" : 					{
						"fileversion" : 1,
						"rect" : [ 50.0, 94.0, 517.0, 531.0 ],
						"bglocked" : 0,
						"defrect" : [ 50.0, 94.0, 517.0, 531.0 ],
						"openrect" : [ 0.0, 0.0, 0.0, 0.0 ],
						"openinpresentation" : 0,
						"default_fontsize" : 12.0,
						"default_fontface" : 0,
						"default_fontname" : "Arial",
						"gridonopen" : 0,
						"gridsize" : [ 15.0, 15.0 ],
						"gridsnaponopen" : 0,
						"toolbarvisible" : 1,
						"boxanimatetime" : 200,
						"imprint" : 0,
						"enablehscroll" : 1,
						"enablevscroll" : 1,
						"devicewidth" : 0.0,
						"boxes" : [ 							{
								"box" : 								{
									"fontname" : "Verdana",
									"fontsize" : 10.0,
									"frgb" : [ 0.0, 0.0, 0.0, 1.0 ],
									"id" : "obj-1",
									"maxclass" : "comment",
									"numinlets" : 1,
									"numoutlets" : 0,
									"patching_rect" : [ 15.0, 435.0, 113.0, 19.0 ],
									"text" : "for jcom.return only"
								}

							}
, 							{
								"box" : 								{
									"fontname" : "Verdana",
									"fontsize" : 10.0,
									"frgb" : [ 0.0, 0.0, 0.0, 1.0 ],
									"id" : "obj-3",
									"maxclass" : "comment",
									"numinlets" : 1,
									"numoutlets" : 0,
									"patching_rect" : [ 40.0, 455.0, 77.0, 19.0 ],
									"text" : "@enable"
								}

							}
, 							{
								"box" : 								{
									"fontname" : "Verdana",
									"fontsize" : 10.0,
									"frgb" : [ 0.0, 0.0, 0.0, 1.0 ],
									"id" : "obj-16",
									"maxclass" : "comment",
									"numinlets" : 1,
									"numoutlets" : 0,
									"patching_rect" : [ 150.0, 455.0, 302.0, 19.0 ],
									"text" : "1/0 : enables the send of data (on by default)"
								}

							}
, 							{
								"box" : 								{
									"fontname" : "Verdana",
									"fontsize" : 10.0,
									"frgb" : [ 0.0, 0.0, 0.0, 1.0 ],
									"id" : "obj-2",
									"maxclass" : "comment",
									"numinlets" : 1,
									"numoutlets" : 0,
									"patching_rect" : [ 11.0, 364.0, 133.0, 19.0 ],
									"text" : "for jcom.parameter only"
								}

							}
, 							{
								"box" : 								{
									"fontname" : "Verdana",
									"fontsize" : 10.0,
									"frgb" : [ 0.0, 0.0, 0.0, 1.0 ],
									"id" : "obj-25",
									"maxclass" : "comment",
									"numinlets" : 1,
									"numoutlets" : 0,
									"patching_rect" : [ 36.0, 384.0, 77.0, 19.0 ],
									"text" : "@priority"
								}

							}
, 							{
								"box" : 								{
									"fontname" : "Verdana",
									"fontsize" : 10.0,
									"frgb" : [ 0.0, 0.0, 0.0, 1.0 ],
									"id" : "obj-28",
									"linecount" : 3,
									"maxclass" : "comment",
									"numinlets" : 1,
									"numoutlets" : 0,
									"patching_rect" : [ 146.0, 384.0, 340.0, 43.0 ],
									"text" : "lower priorities are sent first when recalling a preset or fetching values (e.g. in jmod.cueManager). parameters without this attribute (i.e with a priority of 0) ar sent at the end"
								}

							}
, 							{
								"box" : 								{
									"fontname" : "Verdana",
									"fontsize" : 10.0,
									"frgb" : [ 0.0, 0.0, 0.0, 1.0 ],
									"id" : "obj-20",
									"maxclass" : "comment",
									"numinlets" : 1,
									"numoutlets" : 0,
									"patching_rect" : [ 36.0, 254.0, 105.0, 19.0 ],
									"text" : "@ramp/scheduler"
								}

							}
, 							{
								"box" : 								{
									"fontname" : "Verdana",
									"fontsize" : 10.0,
									"frgb" : [ 0.0, 0.0, 0.0, 1.0 ],
									"id" : "obj-21",
									"maxclass" : "comment",
									"numinlets" : 1,
									"numoutlets" : 0,
									"patching_rect" : [ 146.0, 254.0, 105.0, 19.0 ],
									"text" : "scheduler/queue..."
								}

							}
, 							{
								"box" : 								{
									"fontname" : "Verdana",
									"fontsize" : 10.0,
									"frgb" : [ 0.0, 0.0, 0.0, 1.0 ],
									"id" : "obj-45",
									"maxclass" : "comment",
									"numinlets" : 1,
									"numoutlets" : 0,
									"patching_rect" : [ 36.0, 334.0, 75.0, 19.0 ],
									"text" : "@description"
								}

							}
, 							{
								"box" : 								{
									"fontname" : "Verdana",
									"fontsize" : 10.0,
									"frgb" : [ 0.0, 0.0, 0.0, 1.0 ],
									"id" : "obj-46",
									"maxclass" : "comment",
									"numinlets" : 1,
									"numoutlets" : 0,
									"patching_rect" : [ 36.0, 274.0, 105.0, 19.0 ],
									"text" : "@repetitions/allow"
								}

							}
, 							{
								"box" : 								{
									"fontname" : "Verdana",
									"fontsize" : 10.0,
									"frgb" : [ 0.0, 0.0, 0.0, 1.0 ],
									"id" : "obj-47",
									"maxclass" : "comment",
									"numinlets" : 1,
									"numoutlets" : 0,
									"patching_rect" : [ 36.0, 234.0, 92.0, 19.0 ],
									"text" : "@ramp/function"
								}

							}
, 							{
								"box" : 								{
									"fontname" : "Verdana",
									"fontsize" : 10.0,
									"frgb" : [ 0.0, 0.0, 0.0, 1.0 ],
									"id" : "obj-48",
									"maxclass" : "comment",
									"numinlets" : 1,
									"numoutlets" : 0,
									"patching_rect" : [ 36.0, 314.0, 101.0, 19.0 ],
									"text" : "@range/clipmode"
								}

							}
, 							{
								"box" : 								{
									"fontname" : "Verdana",
									"fontsize" : 10.0,
									"frgb" : [ 0.0, 0.0, 0.0, 1.0 ],
									"id" : "obj-49",
									"maxclass" : "comment",
									"numinlets" : 1,
									"numoutlets" : 0,
									"patching_rect" : [ 36.0, 294.0, 91.0, 19.0 ],
									"text" : "@range/bounds"
								}

							}
, 							{
								"box" : 								{
									"fontname" : "Verdana",
									"fontsize" : 10.0,
									"frgb" : [ 0.0, 0.0, 0.0, 1.0 ],
									"id" : "obj-50",
									"maxclass" : "comment",
									"numinlets" : 1,
									"numoutlets" : 0,
									"patching_rect" : [ 36.0, 214.0, 44.0, 19.0 ],
									"text" : "@type"
								}

							}
, 							{
								"box" : 								{
									"fontname" : "Verdana",
									"fontsize" : 10.0,
									"frgb" : [ 0.0, 0.0, 0.0, 1.0 ],
									"id" : "obj-4",
									"linecount" : 3,
									"maxclass" : "comment",
									"numinlets" : 1,
									"numoutlets" : 0,
									"patching_rect" : [ 36.0, 139.0, 370.0, 43.0 ],
									"text" : "If you need to return messages from your algorithm to the rest of the world. you can specify type, range... etc as in jcom.parameter or jcom.message"
								}

							}
, 							{
								"box" : 								{
									"fontname" : "Verdana",
									"fontsize" : 10.0,
									"frgb" : [ 0.0, 0.0, 0.0, 1.0 ],
									"id" : "obj-5",
									"maxclass" : "comment",
									"numinlets" : 1,
									"numoutlets" : 0,
									"patching_rect" : [ 11.0, 119.0, 380.0, 19.0 ],
									"text" : "jcom.return:"
								}

							}
, 							{
								"box" : 								{
									"fontname" : "Verdana",
									"fontsize" : 10.0,
									"frgb" : [ 0.0, 0.0, 0.0, 1.0 ],
									"id" : "obj-6",
									"linecount" : 2,
									"maxclass" : "comment",
									"numinlets" : 1,
									"numoutlets" : 0,
									"patching_rect" : [ 36.0, 79.0, 342.0, 31.0 ],
									"text" : "If you need to send messages to or within the patch, but it's not required that they be stored or retrieveable, use jcom.message."
								}

							}
, 							{
								"box" : 								{
									"fontname" : "Verdana",
									"fontsize" : 10.0,
									"frgb" : [ 0.0, 0.0, 0.0, 1.0 ],
									"id" : "obj-7",
									"maxclass" : "comment",
									"numinlets" : 1,
									"numoutlets" : 0,
									"patching_rect" : [ 11.0, 59.0, 366.0, 19.0 ],
									"text" : "jcom.message:"
								}

							}
, 							{
								"box" : 								{
									"fontname" : "Verdana",
									"fontsize" : 10.0,
									"frgb" : [ 0.0, 0.0, 0.0, 1.0 ],
									"id" : "obj-8",
									"maxclass" : "comment",
									"numinlets" : 1,
									"numoutlets" : 0,
									"patching_rect" : [ 36.0, 29.0, 402.0, 19.0 ],
									"text" : "Use this for any parameters that you'd like to be able to store and retrieve."
								}

							}
, 							{
								"box" : 								{
									"fontname" : "Verdana",
									"fontsize" : 10.0,
									"frgb" : [ 0.0, 0.0, 0.0, 1.0 ],
									"id" : "obj-9",
									"maxclass" : "comment",
									"numinlets" : 1,
									"numoutlets" : 0,
									"patching_rect" : [ 11.0, 9.0, 293.0, 19.0 ],
									"text" : "jcom.parameter:"
								}

							}
, 							{
								"box" : 								{
									"fontname" : "Verdana",
									"fontsize" : 10.0,
									"frgb" : [ 0.0, 0.0, 0.0, 1.0 ],
									"id" : "obj-10",
									"maxclass" : "comment",
									"numinlets" : 1,
									"numoutlets" : 0,
									"patching_rect" : [ 146.0, 334.0, 149.0, 19.0 ],
									"text" : "for html autodoc of module"
								}

							}
, 							{
								"box" : 								{
									"fontname" : "Verdana",
									"fontsize" : 10.0,
									"frgb" : [ 0.0, 0.0, 0.0, 1.0 ],
									"id" : "obj-11",
									"maxclass" : "comment",
									"numinlets" : 1,
									"numoutlets" : 0,
									"patching_rect" : [ 146.0, 274.0, 282.0, 19.0 ],
									"text" : "1 (default)/0 --- 1 means that repetitions are allowed"
								}

							}
, 							{
								"box" : 								{
									"fontname" : "Verdana",
									"fontsize" : 10.0,
									"frgb" : [ 0.0, 0.0, 0.0, 1.0 ],
									"id" : "obj-12",
									"maxclass" : "comment",
									"numinlets" : 1,
									"numoutlets" : 0,
									"patching_rect" : [ 146.0, 234.0, 221.0, 19.0 ],
									"text" : "none/linear/cosine/power/tanh/lowpass..."
								}

							}
, 							{
								"box" : 								{
									"fontname" : "Verdana",
									"fontsize" : 10.0,
									"frgb" : [ 0.0, 0.0, 0.0, 1.0 ],
									"id" : "obj-13",
									"maxclass" : "comment",
									"numinlets" : 1,
									"numoutlets" : 0,
									"patching_rect" : [ 146.0, 314.0, 166.0, 19.0 ],
									"text" : "none, low, high, both (default)"
								}

							}
, 							{
								"box" : 								{
									"fontname" : "Verdana",
									"fontsize" : 10.0,
									"frgb" : [ 0.0, 0.0, 0.0, 1.0 ],
									"id" : "obj-14",
									"maxclass" : "comment",
									"numinlets" : 1,
									"numoutlets" : 0,
									"patching_rect" : [ 146.0, 294.0, 314.0, 19.0 ],
									"text" : "minimum and maximum values for this parameter/message"
								}

							}
, 							{
								"box" : 								{
									"fontname" : "Verdana",
									"fontsize" : 10.0,
									"frgb" : [ 0.0, 0.0, 0.0, 1.0 ],
									"id" : "obj-15",
									"maxclass" : "comment",
									"numinlets" : 1,
									"numoutlets" : 0,
									"patching_rect" : [ 146.0, 214.0, 273.0, 19.0 ],
									"text" : "generic (default), msg_int, msg_float, menu, toggle"
								}

							}
, 							{
								"box" : 								{
									"fontname" : "Verdana",
									"fontsize" : 10.0,
									"frgb" : [ 0.0, 0.0, 0.0, 1.0 ],
									"id" : "obj-51",
									"maxclass" : "comment",
									"numinlets" : 1,
									"numoutlets" : 0,
									"patching_rect" : [ 11.0, 194.0, 295.0, 19.0 ],
									"text" : "Attributes for jcom.parameter and jcom.message:"
								}

							}
 ],
						"lines" : [  ]
					}
,
					"patching_rect" : [ 345.0, 5.0, 240.0, 23.0 ],
					"saved_object_attributes" : 					{
						"default_fontsize" : 12.0,
						"fontface" : 0,
						"fontsize" : 12.0,
						"default_fontface" : 0,
						"globalpatchername" : "",
						"default_fontname" : "Arial",
						"fontname" : "Arial"
					}
,
					"text" : "p read_me_for_programming_details",
					"textcolor" : [ 0.290196, 0.611765, 0.380392, 1.0 ]
				}

			}
, 			{
				"box" : 				{
					"fontname" : "Monaco",
					"fontsize" : 10.0,
					"id" : "obj-42",
					"maxclass" : "newobj",
					"numinlets" : 1,
					"numoutlets" : 0,
					"patcher" : 					{
						"fileversion" : 1,
						"rect" : [ 400.0, 200.0, 700.0, 552.0 ],
						"bgcolor" : [ 0.188235, 0.188235, 0.188235, 1.0 ],
						"bglocked" : 0,
						"defrect" : [ 400.0, 200.0, 700.0, 552.0 ],
						"openrect" : [ 0.0, 0.0, 0.0, 0.0 ],
						"openinpresentation" : 0,
						"default_fontsize" : 12.0,
						"default_fontface" : 0,
						"default_fontname" : "Arial",
						"gridonopen" : 0,
						"gridsize" : [ 15.0, 15.0 ],
						"gridsnaponopen" : 0,
						"toolbarvisible" : 1,
						"boxanimatetime" : 200,
						"imprint" : 0,
						"enablehscroll" : 1,
						"enablevscroll" : 1,
						"devicewidth" : 0.0,
						"boxes" : [ 							{
								"box" : 								{
									"fontname" : "Verdana",
									"fontsize" : 9.873845,
									"hidden" : 1,
									"id" : "obj-20",
									"maxclass" : "newobj",
									"numinlets" : 1,
									"numoutlets" : 3,
									"outlettype" : [ "int", "bang", "int" ],
									"patching_rect" : [ 77.821503, 144.313141, 46.0, 18.0 ],
									"text" : "t 1 b 0"
								}

							}
, 							{
								"box" : 								{
									"fontname" : "Verdana",
									"fontsize" : 9.873845,
									"hidden" : 1,
									"id" : "obj-5",
									"maxclass" : "newobj",
									"numinlets" : 2,
									"numoutlets" : 1,
									"outlettype" : [ "" ],
									"patching_rect" : [ 77.821503, 171.313141, 52.0, 18.0 ],
									"text" : "gate 1 1"
								}

							}
, 							{
								"box" : 								{
									"bgcolor" : [ 0.913725, 0.913725, 0.913725, 0.0 ],
									"id" : "obj-6",
									"maxclass" : "button",
									"numinlets" : 1,
									"numoutlets" : 1,
									"outlettype" : [ "bang" ],
									"outlinecolor" : [ 0.501961, 0.501961, 0.501961, 1.0 ],
									"patching_rect" : [ 47.821507, 153.313141, 19.0, 19.0 ],
									"presentation" : 1,
									"presentation_rect" : [ 39.495735, 17.753286, 18.0, 18.0 ]
								}

							}
, 							{
								"box" : 								{
									"fontname" : "Verdana",
									"fontsize" : 9.873845,
									"hidden" : 1,
									"id" : "obj-8",
									"linecount" : 2,
									"maxclass" : "newobj",
									"numinlets" : 1,
									"numoutlets" : 3,
									"outlettype" : [ "", "", "" ],
									"patching_rect" : [ 131.821503, 151.313141, 436.0, 30.0 ],
									"text" : "jcom.parameter a_bang @type generic @repetitions/allow 1 @ramp/drive none @priority 1 @description \"a bang\"",
									"varname" : "foot/switch"
								}

							}
, 							{
								"box" : 								{
									"fontname" : "Verdana",
									"fontsize" : 10.0,
									"frgb" : [ 0.290196, 0.611765, 0.380392, 1.0 ],
									"hidden" : 1,
									"id" : "obj-50",
									"maxclass" : "comment",
									"numinlets" : 1,
									"numoutlets" : 0,
									"patching_rect" : [ 178.0, 117.0, 233.0, 19.0 ],
									"text" : "some more variables can be declared here",
									"textcolor" : [ 0.290196, 0.611765, 0.380392, 1.0 ]
								}

							}
, 							{
								"box" : 								{
									"bgcolor" : [ 0.188235, 0.188235, 0.188235, 1.0 ],
									"fontname" : "Arial",
									"fontsize" : 12.0,
									"frgb" : [ 1.0, 1.0, 1.0, 1.0 ],
									"id" : "obj-1",
									"maxclass" : "comment",
									"numinlets" : 1,
									"numoutlets" : 0,
									"patching_rect" : [ 36.0, 18.0, 344.0, 20.0 ],
									"text" : "as a good example for panel, see jmod.bcf2000.maxpat",
									"textcolor" : [ 1.0, 1.0, 1.0, 1.0 ]
								}

							}
, 							{
								"box" : 								{
									"fontname" : "Verdana",
									"fontsize" : 9.873845,
									"hidden" : 1,
									"id" : "obj-26",
									"linecount" : 2,
									"maxclass" : "message",
									"numinlets" : 2,
									"numoutlets" : 1,
									"outlettype" : [ "" ],
									"patching_rect" : [ 127.578354, 222.32814, 103.0, 28.0 ],
									"presentation" : 1,
									"presentation_linecount" : 2,
									"presentation_rect" : [ 120.961182, 24.758301, 103.0, 28.0 ],
									"text" : "window flags grow, window exec"
								}

							}
, 							{
								"box" : 								{
									"fontname" : "Verdana",
									"fontsize" : 9.873845,
									"hidden" : 1,
									"id" : "obj-27",
									"linecount" : 2,
									"maxclass" : "message",
									"numinlets" : 2,
									"numoutlets" : 1,
									"outlettype" : [ "" ],
									"patching_rect" : [ 142.512863, 263.29538, 355.0, 28.0 ],
									"presentation" : 1,
									"presentation_linecount" : 2,
									"presentation_rect" : [ 119.825417, 64.780228, 355.0, 28.0 ],
									"text" : "window size 400 200 1100 700, window flags nogrow, window exec, savewindow 1"
								}

							}
, 							{
								"box" : 								{
									"fontname" : "Verdana",
									"fontsize" : 9.873845,
									"hidden" : 1,
									"id" : "obj-30",
									"maxclass" : "newobj",
									"numinlets" : 1,
									"numoutlets" : 1,
									"outlettype" : [ "front" ],
									"patcher" : 									{
										"fileversion" : 1,
										"rect" : [ 840.0, 548.0, 600.0, 426.0 ],
										"bglocked" : 0,
										"defrect" : [ 840.0, 548.0, 600.0, 426.0 ],
										"openrect" : [ 0.0, 0.0, 0.0, 0.0 ],
										"openinpresentation" : 0,
										"default_fontsize" : 10.0,
										"default_fontface" : 0,
										"default_fontname" : "Verdana",
										"gridonopen" : 0,
										"gridsize" : [ 5.0, 5.0 ],
										"gridsnaponopen" : 0,
										"toolbarvisible" : 1,
										"boxanimatetime" : 200,
										"imprint" : 0,
										"enablehscroll" : 1,
										"enablevscroll" : 1,
										"devicewidth" : 0.0,
										"boxes" : [ 											{
												"box" : 												{
													"fontname" : "Verdana",
													"fontsize" : 9.873845,
													"id" : "obj-2",
													"maxclass" : "newobj",
													"numinlets" : 1,
													"numoutlets" : 2,
													"outlettype" : [ "", "" ],
													"patching_rect" : [ 50.0, 50.0, 144.0, 18.0 ],
													"text" : "jcom.oscroute /panel/open"
												}

											}
, 											{
												"box" : 												{
													"fontname" : "Verdana",
													"fontsize" : 9.873845,
													"id" : "obj-3",
													"maxclass" : "newobj",
													"numinlets" : 1,
													"numoutlets" : 1,
													"outlettype" : [ "front" ],
													"patching_rect" : [ 50.0, 92.0, 40.0, 18.0 ],
													"text" : "t front"
												}

											}
, 											{
												"box" : 												{
													"comment" : "",
													"id" : "obj-4",
													"maxclass" : "inlet",
													"numinlets" : 0,
													"numoutlets" : 1,
													"outlettype" : [ "" ],
													"patching_rect" : [ 50.0, 30.0, 15.0, 15.0 ]
												}

											}
, 											{
												"box" : 												{
													"comment" : "",
													"id" : "obj-5",
													"maxclass" : "outlet",
													"numinlets" : 1,
													"numoutlets" : 0,
													"patching_rect" : [ 50.0, 114.0, 15.0, 15.0 ]
												}

											}
 ],
										"lines" : [ 											{
												"patchline" : 												{
													"destination" : [ "obj-3", 0 ],
													"hidden" : 0,
													"midpoints" : [  ],
													"source" : [ "obj-2", 0 ]
												}

											}
, 											{
												"patchline" : 												{
													"destination" : [ "obj-5", 0 ],
													"hidden" : 0,
													"midpoints" : [  ],
													"source" : [ "obj-3", 0 ]
												}

											}
, 											{
												"patchline" : 												{
													"destination" : [ "obj-2", 0 ],
													"hidden" : 0,
													"midpoints" : [  ],
													"source" : [ "obj-4", 0 ]
												}

											}
 ]
									}
,
									"patching_rect" : [ 40.0, 220.0, 42.0, 18.0 ],
									"saved_object_attributes" : 									{
										"default_fontsize" : 10.0,
										"fontface" : 0,
										"fontsize" : 10.0,
										"default_fontface" : 0,
										"globalpatchername" : "",
										"default_fontname" : "Verdana",
										"fontname" : "Verdana"
									}
,
									"text" : "p front"
								}

							}
, 							{
								"box" : 								{
									"fontname" : "Verdana",
									"fontsize" : 9.873845,
									"hidden" : 1,
									"id" : "obj-34",
									"maxclass" : "newobj",
									"numinlets" : 1,
									"numoutlets" : 2,
									"outlettype" : [ "", "" ],
									"patching_rect" : [ 40.032738, 342.327393, 64.0, 18.0 ],
									"save" : [ "#N", "thispatcher", ";", "#Q", "savewindow", 1, ";", "#Q", "end", ";" ],
									"text" : "thispatcher"
								}

							}
, 							{
								"box" : 								{
									"comment" : "",
									"hidden" : 1,
									"id" : "obj-35",
									"maxclass" : "inlet",
									"numinlets" : 0,
									"numoutlets" : 1,
									"outlettype" : [ "" ],
									"patching_rect" : [ 40.0, 202.0, 15.0, 15.0 ]
								}

							}
, 							{
								"box" : 								{
									"fontname" : "Verdana",
									"fontsize" : 9.873845,
									"hidden" : 1,
									"id" : "obj-36",
									"maxclass" : "newobj",
									"numinlets" : 4,
									"numoutlets" : 0,
									"patching_rect" : [ 158.038651, 347.505981, 93.0, 18.0 ],
									"text" : "bgcolor 48 48 48"
								}

							}
, 							{
								"box" : 								{
									"bgcolor" : [ 0.188235, 0.188235, 0.188235, 1.0 ],
									"border" : 1,
									"bordercolor" : [ 0.517647, 0.517647, 0.517647, 1.0 ],
									"id" : "obj-40",
									"maxclass" : "panel",
									"numinlets" : 1,
									"numoutlets" : 0,
									"patching_rect" : [ 41.0, 59.0, 106.0, 60.0 ],
									"presentation" : 1,
									"presentation_rect" : [ -1.0, -2.0, 106.0, 60.0 ],
									"rounded" : 0
								}

							}
 ],
						"lines" : [ 							{
								"patchline" : 								{
									"destination" : [ "obj-5", 0 ],
									"hidden" : 1,
									"midpoints" : [  ],
									"source" : [ "obj-20", 2 ]
								}

							}
, 							{
								"patchline" : 								{
									"destination" : [ "obj-5", 0 ],
									"hidden" : 1,
									"midpoints" : [  ],
									"source" : [ "obj-20", 0 ]
								}

							}
, 							{
								"patchline" : 								{
									"destination" : [ "obj-6", 0 ],
									"hidden" : 1,
									"midpoints" : [  ],
									"source" : [ "obj-20", 1 ]
								}

							}
, 							{
								"patchline" : 								{
									"destination" : [ "obj-34", 0 ],
									"hidden" : 1,
									"midpoints" : [ 137.078354, 271.0, 49.532738, 271.0 ],
									"source" : [ "obj-26", 0 ]
								}

							}
, 							{
								"patchline" : 								{
									"destination" : [ "obj-34", 0 ],
									"hidden" : 1,
									"midpoints" : [  ],
									"source" : [ "obj-27", 0 ]
								}

							}
, 							{
								"patchline" : 								{
									"destination" : [ "obj-34", 0 ],
									"hidden" : 1,
									"midpoints" : [  ],
									"source" : [ "obj-30", 0 ]
								}

							}
, 							{
								"patchline" : 								{
									"destination" : [ "obj-30", 0 ],
									"hidden" : 1,
									"midpoints" : [  ],
									"source" : [ "obj-35", 0 ]
								}

							}
, 							{
								"patchline" : 								{
									"destination" : [ "obj-8", 0 ],
									"hidden" : 1,
									"midpoints" : [  ],
									"source" : [ "obj-5", 0 ]
								}

							}
, 							{
								"patchline" : 								{
									"destination" : [ "obj-5", 1 ],
									"hidden" : 1,
									"midpoints" : [  ],
									"source" : [ "obj-6", 0 ]
								}

							}
, 							{
								"patchline" : 								{
									"destination" : [ "obj-20", 0 ],
									"hidden" : 1,
									"midpoints" : [  ],
									"source" : [ "obj-8", 0 ]
								}

							}
 ]
					}
,
					"patching_rect" : [ 85.0, 245.0, 55.0, 20.0 ],
					"saved_object_attributes" : 					{
						"default_fontsize" : 12.0,
						"fontface" : 0,
						"fontsize" : 12.0,
						"default_fontface" : 0,
						"globalpatchername" : "",
						"default_fontname" : "Arial",
						"fontname" : "Arial"
					}
,
					"text" : "p panel"
				}

			}
, 			{
				"box" : 				{
					"fontname" : "Monaco",
					"fontsize" : 10.0,
					"id" : "obj-12",
					"maxclass" : "message",
					"numinlets" : 2,
					"numoutlets" : 1,
					"outlettype" : [ "" ],
					"patching_rect" : [ 140.0, 245.0, 237.0, 18.0 ],
					"text" : "/unit 20"
				}

			}
, 			{
				"box" : 				{
					"fontname" : "Arial",
					"fontsize" : 14.0,
					"id" : "obj-1",
					"maxclass" : "newobj",
					"numinlets" : 0,
					"numoutlets" : 0,
					"patcher" : 					{
						"fileversion" : 1,
						"rect" : [ 25.0, 69.0, 490.0, 315.0 ],
						"bglocked" : 0,
						"defrect" : [ 25.0, 69.0, 490.0, 315.0 ],
						"openrect" : [ 0.0, 0.0, 0.0, 0.0 ],
						"openinpresentation" : 0,
						"default_fontsize" : 10.0,
						"default_fontface" : 0,
						"default_fontname" : "Arial",
						"gridonopen" : 0,
						"gridsize" : [ 5.0, 5.0 ],
						"gridsnaponopen" : 0,
						"toolbarvisible" : 1,
						"boxanimatetime" : 200,
						"imprint" : 0,
						"enablehscroll" : 1,
						"enablevscroll" : 1,
						"devicewidth" : 0.0,
						"boxes" : [ 							{
								"box" : 								{
									"fontname" : "Arial",
									"fontsize" : 12.0,
									"frgb" : [ 0.0, 0.0, 0.0, 1.0 ],
									"id" : "obj-1",
									"linecount" : 2,
									"maxclass" : "comment",
									"numinlets" : 1,
									"numoutlets" : 0,
									"patching_rect" : [ 20.0, 21.0, 340.0, 34.0 ],
									"text" : "here you can type any note you want, that will help understand your patch and its current usability"
								}

							}
 ],
						"lines" : [  ]
					}
,
					"patching_rect" : [ 596.0, 5.0, 113.0, 23.0 ],
					"saved_object_attributes" : 					{
						"default_fontsize" : 10.0,
						"fontface" : 0,
						"fontsize" : 10.0,
						"default_fontface" : 0,
						"globalpatchername" : "",
						"default_fontname" : "Arial",
						"fontname" : "Arial"
					}
,
					"text" : "p notes_&_bugs",
					"textcolor" : [ 0.290196, 0.611765, 0.380392, 1.0 ]
				}

			}
, 			{
				"box" : 				{
					"fontname" : "Monaco",
					"fontsize" : 10.0,
					"id" : "obj-52",
					"maxclass" : "newobj",
					"numinlets" : 0,
					"numoutlets" : 1,
					"outlettype" : [ "" ],
					"patching_rect" : [ 60.0, 175.0, 132.0, 20.0 ],
					"text" : "jcom.meter_receive 1"
				}

			}
, 			{
				"box" : 				{
					"id" : "obj-54",
					"maxclass" : "jcom.meter~",
					"numinlets" : 1,
					"numoutlets" : 1,
					"outlettype" : [ "" ],
					"patching_rect" : [ 60.0, 195.0, 80.0, 4.0 ],
					"presentation" : 1,
					"presentation_rect" : [ 155.0, 5.0, 80.0, 4.0 ]
				}

			}
, 			{
				"box" : 				{
					"fontname" : "Monaco",
					"fontsize" : 10.0,
					"id" : "obj-6",
					"maxclass" : "message",
					"numinlets" : 2,
					"numoutlets" : 1,
					"outlettype" : [ "" ],
					"patching_rect" : [ 30.0, 95.0, 299.0, 18.0 ],
					"text" : "/preset/store 1 default, /preset/write"
				}

			}
, 			{
				"box" : 				{
					"fontname" : "Monaco",
					"fontsize" : 10.0,
					"id" : "obj-7",
					"maxclass" : "newobj",
					"numinlets" : 1,
					"numoutlets" : 2,
					"outlettype" : [ "signal", "" ],
					"patching_rect" : [ 70.0, 295.0, 77.0, 20.0 ],
					"text" : "jcom.out~ 1"
				}

			}
, 			{
				"box" : 				{
					"fontname" : "Monaco",
					"fontsize" : 10.0,
					"id" : "obj-8",
					"maxclass" : "newobj",
					"numinlets" : 1,
					"numoutlets" : 2,
					"outlettype" : [ "", "" ],
					"patching_rect" : [ 70.0, 215.0, 54.0, 20.0 ],
					"text" : "jcom.in"
				}

			}
, 			{
				"box" : 				{
					"fontname" : "Monaco",
					"fontsize" : 10.0,
					"id" : "obj-9",
					"maxclass" : "message",
					"numinlets" : 2,
					"numoutlets" : 1,
					"outlettype" : [ "" ],
					"patching_rect" : [ 45.0, 115.0, 151.0, 18.0 ],
					"text" : "/documentation/generate"
				}

			}
, 			{
				"box" : 				{
					"fontname" : "Monaco",
					"fontsize" : 10.0,
					"id" : "obj-30",
					"maxclass" : "newobj",
					"numinlets" : 1,
					"numoutlets" : 2,
					"outlettype" : [ "", "" ],
					"patching_rect" : [ 5.0, 150.0, 461.0, 20.0 ],
					"text" : "jcom.hub @module_type audio @description \"This module doesn't do much yet\"",
					"varname" : "jcom.hub"
				}

			}
, 			{
				"box" : 				{
					"fontname" : "Monaco",
					"fontsize" : 10.0,
					"frgb" : [ 0.0, 0.0, 0.0, 1.0 ],
					"id" : "obj-31",
					"maxclass" : "comment",
					"numinlets" : 1,
					"numoutlets" : 0,
					"patching_rect" : [ 35.0, 75.0, 99.0, 20.0 ],
					"text" : "command input"
				}

			}
, 			{
				"box" : 				{
					"comment" : "",
					"id" : "obj-32",
					"maxclass" : "inlet",
					"numinlets" : 0,
					"numoutlets" : 1,
					"outlettype" : [ "" ],
					"patching_rect" : [ 5.0, 75.0, 24.0, 24.0 ]
				}

			}
, 			{
				"box" : 				{
					"fontname" : "Monaco",
					"fontsize" : 10.0,
					"id" : "obj-33",
					"maxclass" : "message",
					"numinlets" : 2,
					"numoutlets" : 1,
					"outlettype" : [ "" ],
					"patching_rect" : [ 205.0, 115.0, 56.0, 18.0 ],
					"text" : "/init"
				}

			}
, 			{
				"box" : 				{
					"comment" : "",
					"id" : "obj-35",
					"maxclass" : "outlet",
					"numinlets" : 1,
					"numoutlets" : 0,
					"patching_rect" : [ 70.0, 325.0, 24.0, 24.0 ]
				}

			}
, 			{
				"box" : 				{
					"fontname" : "Monaco",
					"fontsize" : 10.0,
					"id" : "obj-43",
					"maxclass" : "newobj",
					"numinlets" : 1,
					"numoutlets" : 2,
					"outlettype" : [ "signal", "bang" ],
					"patcher" : 					{
						"fileversion" : 1,
						"rect" : [ 424.0, 404.0, 586.0, 198.0 ],
						"bglocked" : 0,
						"defrect" : [ 424.0, 404.0, 586.0, 198.0 ],
						"openrect" : [ 0.0, 0.0, 0.0, 0.0 ],
						"openinpresentation" : 0,
						"default_fontsize" : 10.0,
						"default_fontface" : 0,
						"default_fontname" : "Helvetica Neue",
						"gridonopen" : 0,
						"gridsize" : [ 10.0, 10.0 ],
						"gridsnaponopen" : 0,
						"toolbarvisible" : 1,
						"boxanimatetime" : 200,
						"imprint" : 0,
						"enablehscroll" : 1,
						"enablevscroll" : 1,
						"devicewidth" : 0.0,
						"boxes" : [ 							{
								"box" : 								{
									"comment" : "",
									"id" : "obj-5",
									"maxclass" : "outlet",
									"numinlets" : 1,
									"numoutlets" : 0,
									"patching_rect" : [ 370.0, 90.0, 18.0, 18.0 ]
								}

							}
, 							{
								"box" : 								{
									"fontname" : "Monaco",
									"fontsize" : 10.0,
									"id" : "obj-2",
									"maxclass" : "newobj",
									"numinlets" : 2,
									"numoutlets" : 1,
									"outlettype" : [ "" ],
									"patching_rect" : [ 10.0, 90.0, 89.0, 20.0 ],
									"saved_object_attributes" : 									{
										"ftm_scope" : 1
									}
,
									"text" : "ftm.copy fmat"
								}

							}
, 							{
								"box" : 								{
									"comment" : "",
									"id" : "obj-4",
									"maxclass" : "outlet",
									"numinlets" : 1,
									"numoutlets" : 0,
									"patching_rect" : [ 10.0, 190.0, 18.0, 18.0 ]
								}

							}
, 							{
								"box" : 								{
									"comment" : "",
									"id" : "obj-3",
									"maxclass" : "inlet",
									"numinlets" : 0,
									"numoutlets" : 1,
									"outlettype" : [ "" ],
									"patching_rect" : [ 10.0, 0.0, 25.0, 25.0 ]
								}

							}
, 							{
								"box" : 								{
									"fontname" : "Monaco",
									"fontsize" : 10.0,
									"id" : "obj-1",
									"maxclass" : "newobj",
									"numinlets" : 1,
									"numoutlets" : 5,
									"outlettype" : [ "", "", "", "", "" ],
									"patching_rect" : [ 10.0, 30.0, 562.0, 20.0 ],
									"text" : "jcom.oscroute /unit /transp /mult /initialize"
								}

							}
, 							{
								"box" : 								{
									"fontname" : "Monaco",
									"fontsize" : 10.0,
									"id" : "obj-12",
									"linecount" : 2,
									"maxclass" : "newobj",
									"numinlets" : 2,
									"numoutlets" : 1,
									"outlettype" : [ "" ],
									"patching_rect" : [ 10.0, 120.0, 95.0, 33.0 ],
									"saved_object_attributes" : 									{
										"ftm_scope" : 0
									}
,
									"text" : "gbr.wind= trzoid 5 5"
								}

							}
, 							{
								"box" : 								{
									"fontname" : "Monaco",
									"fontsize" : 10.0,
									"id" : "obj-14",
									"maxclass" : "newobj",
									"numinlets" : 4,
									"numoutlets" : 2,
									"outlettype" : [ "", "bang" ],
									"patcher" : 									{
										"fileversion" : 1,
										"rect" : [ 673.0, 247.0, 546.0, 468.0 ],
										"bglocked" : 0,
										"defrect" : [ 673.0, 247.0, 546.0, 468.0 ],
										"openrect" : [ 0.0, 0.0, 0.0, 0.0 ],
										"openinpresentation" : 0,
										"default_fontsize" : 12.0,
										"default_fontface" : 0,
										"default_fontname" : "Arial",
										"gridonopen" : 0,
										"gridsize" : [ 10.0, 10.0 ],
										"gridsnaponopen" : 0,
										"toolbarvisible" : 1,
										"boxanimatetime" : 200,
										"imprint" : 0,
										"enablehscroll" : 1,
										"enablevscroll" : 1,
										"devicewidth" : 0.0,
										"boxes" : [ 											{
												"box" : 												{
													"fontname" : "Arial",
													"fontsize" : 12.0,
													"id" : "obj-22",
													"maxclass" : "number",
													"numinlets" : 1,
													"numoutlets" : 2,
													"outlettype" : [ "int", "bang" ],
													"patching_rect" : [ 60.0, 60.0, 50.0, 20.0 ]
												}

											}
, 											{
												"box" : 												{
													"fontname" : "Arial",
													"fontsize" : 12.0,
													"id" : "obj-14",
													"maxclass" : "newobj",
													"numinlets" : 1,
													"numoutlets" : 2,
													"outlettype" : [ "int", "int" ],
													"patching_rect" : [ 10.0, 30.0, 54.0, 20.0 ],
													"text" : "t 0 i"
												}

											}
, 											{
												"box" : 												{
													"fontname" : "Arial",
													"fontsize" : 12.0,
													"id" : "obj-13",
													"maxclass" : "newobj",
													"numinlets" : 2,
													"numoutlets" : 1,
													"outlettype" : [ "" ],
													"patching_rect" : [ 10.0, 60.0, 54.0, 20.0 ],
													"text" : "gate 1 1"
												}

											}
, 											{
												"box" : 												{
													"#init" : "",
													"#loadbang" : 0,
													"#triggerall" : 0,
													"#untuple" : 0,
													"fontname" : "Monaco",
													"fontsize" : 10.0,
													"ftm_scope" : 0,
													"id" : "obj-15",
													"maxclass" : "ftm.mess",
													"numinlets" : 2,
													"numoutlets" : 1,
													"outlettype" : [ "" ],
													"patching_rect" : [ 300.0, 230.0, 42.005859, 18.0 ],
													"presentation_rect" : [ 300.0, 230.0, 42.005859, 18.0 ],
													"text" : [ "_$1[$2]" ]
												}

											}
, 											{
												"box" : 												{
													"comment" : "",
													"id" : "obj-12",
													"maxclass" : "inlet",
													"numinlets" : 0,
													"numoutlets" : 1,
													"outlettype" : [ "" ],
													"patching_rect" : [ 310.0, 300.0, 24.0, 24.0 ]
												}

											}
, 											{
												"box" : 												{
													"#init" : "",
													"#loadbang" : 0,
													"#triggerall" : 0,
													"#untuple" : 0,
													"fontname" : "Monaco",
													"fontsize" : 10.0,
													"ftm_scope" : 0,
													"id" : "obj-11",
													"maxclass" : "ftm.mess",
													"numinlets" : 2,
													"numoutlets" : 1,
													"outlettype" : [ "" ],
													"patching_rect" : [ 290.0, 330.0, 60.008789, 18.0 ],
													"presentation_rect" : [ 290.0, 330.0, 60.008789, 18.0 ],
													"text" : [ "_($1 * $2)" ]
												}

											}
, 											{
												"box" : 												{
													"fontname" : "Monaco",
													"fontsize" : 10.0,
													"id" : "obj-10",
													"maxclass" : "newobj",
													"numinlets" : 1,
													"numoutlets" : 2,
													"outlettype" : [ "bang", "int" ],
													"patching_rect" : [ 220.0, 370.0, 42.0, 20.0 ],
													"text" : "t b 1"
												}

											}
, 											{
												"box" : 												{
													"comment" : "",
													"id" : "obj-9",
													"maxclass" : "outlet",
													"numinlets" : 1,
													"numoutlets" : 0,
													"patching_rect" : [ 220.0, 400.0, 22.0, 22.0 ]
												}

											}
, 											{
												"box" : 												{
													"fontname" : "Monaco",
													"fontsize" : 10.0,
													"id" : "obj-8",
													"maxclass" : "newobj",
													"numinlets" : 1,
													"numoutlets" : 2,
													"outlettype" : [ "", "bang" ],
													"patching_rect" : [ 10.0, 300.0, 202.0, 20.0 ],
													"text" : "t l b"
												}

											}
, 											{
												"box" : 												{
													"fontname" : "Monaco",
													"fontsize" : 10.0,
													"id" : "obj-4",
													"maxclass" : "newobj",
													"numinlets" : 2,
													"numoutlets" : 1,
													"outlettype" : [ "" ],
													"patching_rect" : [ 220.0, 350.0, 83.0, 20.0 ],
													"saved_object_attributes" : 													{
														"ftm_scope" : 0
													}
,
													"text" : "ftm.schedule"
												}

											}
, 											{
												"box" : 												{
													"description" : "fvec",
													"fontname" : "Monaco",
													"fontsize" : 10.0,
													"ftm_scope" : 0,
													"id" : "obj-2",
													"maxclass" : "ftm.object",
													"name" : "chunkV",
													"numinlets" : 1,
													"numoutlets" : 2,
													"outlettype" : [ "", "" ],
													"patching_rect" : [ 430.0, 200.0, 92.013672, 19.0 ],
													"persistence" : 0,
													"presentation_rect" : [ 430.0, 200.0, 92.013672, 19.0 ],
													"scope" : 0,
													"text" : "fvec"
												}

											}
, 											{
												"box" : 												{
													"fontname" : "Monaco",
													"fontsize" : 10.0,
													"id" : "obj-1",
													"maxclass" : "newobj",
													"numinlets" : 2,
													"numoutlets" : 1,
													"outlettype" : [ "" ],
													"patching_rect" : [ 10.0, 270.0, 137.0, 20.0 ],
													"saved_object_attributes" : 													{
														"ftm_scope" : 0
													}
,
													"text" : "ftm.copy fmat $chunk"
												}

											}
, 											{
												"box" : 												{
													"description" : "fmat",
													"fontname" : "Monaco",
													"fontsize" : 10.0,
													"ftm_scope" : 0,
													"id" : "obj-71",
													"maxclass" : "ftm.object",
													"name" : "chunkT",
													"numinlets" : 1,
													"numoutlets" : 2,
													"outlettype" : [ "", "" ],
													"patching_rect" : [ 430.0, 180.0, 92.013672, 19.0 ],
													"persistence" : 0,
													"presentation_rect" : [ 430.0, 180.0, 92.013672, 19.0 ],
													"scope" : 0,
													"text" : "fmat"
												}

											}
, 											{
												"box" : 												{
													"comment" : "",
													"id" : "obj-70",
													"maxclass" : "inlet",
													"numinlets" : 0,
													"numoutlets" : 1,
													"outlettype" : [ "" ],
													"patching_rect" : [ 10.0, 0.0, 24.0, 24.0 ]
												}

											}
, 											{
												"box" : 												{
													"description" : "fmat",
													"fontname" : "Monaco",
													"fontsize" : 10.0,
													"ftm_scope" : 0,
													"id" : "obj-62",
													"maxclass" : "ftm.object",
													"name" : "chunk",
													"numinlets" : 1,
													"numoutlets" : 2,
													"outlettype" : [ "", "" ],
													"patching_rect" : [ 430.0, 160.0, 86.012695, 19.0 ],
													"persistence" : 0,
													"presentation_rect" : [ 430.0, 160.0, 86.012695, 19.0 ],
													"scope" : 0,
													"text" : "fmat"
												}

											}
, 											{
												"box" : 												{
													"fontname" : "Monaco",
													"fontsize" : 10.0,
													"id" : "obj-35",
													"maxclass" : "newobj",
													"numinlets" : 1,
													"numoutlets" : 2,
													"outlettype" : [ "bang", "bang" ],
													"patching_rect" : [ 10.0, 360.0, 59.0, 20.0 ],
													"text" : "t b b"
												}

											}
, 											{
												"box" : 												{
													"fontname" : "Monaco",
													"fontsize" : 10.0,
													"id" : "obj-57",
													"maxclass" : "newobj",
													"numinlets" : 2,
													"numoutlets" : 1,
													"outlettype" : [ "" ],
													"patching_rect" : [ 80.0, 410.0, 137.0, 20.0 ],
													"saved_object_attributes" : 													{
														"ftm_scope" : 0
													}
,
													"text" : "ftm.copy fmat $chunkT"
												}

											}
, 											{
												"box" : 												{
													"#init" : "",
													"#loadbang" : 0,
													"#triggerall" : 0,
													"#untuple" : 0,
													"fontname" : "Monaco",
													"fontsize" : 10.0,
													"ftm_scope" : 0,
													"id" : "obj-54",
													"maxclass" : "ftm.mess",
													"numinlets" : 2,
													"numoutlets" : 1,
													"outlettype" : [ "" ],
													"patching_rect" : [ 10.0, 390.0, 48.006836, 18.0 ],
													"presentation_rect" : [ 10.0, 390.0, 48.006836, 18.0 ],
													"text" : [ "_$chunkT" ]
												}

											}
, 											{
												"box" : 												{
													"comment" : "",
													"id" : "obj-45",
													"maxclass" : "inlet",
													"numinlets" : 0,
													"numoutlets" : 1,
													"outlettype" : [ "" ],
													"patching_rect" : [ 60.0, 390.0, 19.0, 19.0 ]
												}

											}
, 											{
												"box" : 												{
													"fontname" : "Monaco",
													"fontsize" : 10.0,
													"id" : "obj-27",
													"maxclass" : "newobj",
													"numinlets" : 2,
													"numoutlets" : 1,
													"outlettype" : [ "" ],
													"patching_rect" : [ 80.0, 440.0, 155.0, 20.0 ],
													"saved_object_attributes" : 													{
														"ftm_scope" : 0
													}
,
													"text" : "gbr.resample @mode cubic"
												}

											}
, 											{
												"box" : 												{
													"#init" : "",
													"#loadbang" : 0,
													"#triggerall" : 0,
													"#untuple" : 0,
													"fontname" : "Monaco",
													"fontsize" : 10.0,
													"ftm_scope" : 0,
													"id" : "obj-6",
													"maxclass" : "ftm.mess",
													"numinlets" : 2,
													"numoutlets" : 1,
													"outlettype" : [ "" ],
													"patching_rect" : [ 80.0, 390.0, 42.005859, 18.0 ],
													"presentation_rect" : [ 80.0, 390.0, 42.005859, 18.0 ],
													"text" : [ "_$chunk" ]
												}

											}
, 											{
												"box" : 												{
													"fontname" : "Monaco",
													"fontsize" : 10.0,
													"id" : "obj-31",
													"maxclass" : "newobj",
													"numinlets" : 2,
													"numoutlets" : 1,
													"outlettype" : [ "" ],
													"patching_rect" : [ 10.0, 330.0, 83.0, 20.0 ],
													"saved_object_attributes" : 													{
														"ftm_scope" : 0
													}
,
													"text" : "ftm.schedule"
												}

											}
, 											{
												"box" : 												{
													"comment" : "",
													"id" : "obj-3",
													"maxclass" : "inlet",
													"numinlets" : 0,
													"numoutlets" : 1,
													"outlettype" : [ "" ],
													"patching_rect" : [ 320.0, 20.0, 24.0, 24.0 ]
												}

											}
, 											{
												"box" : 												{
													"comment" : "",
													"id" : "obj-5",
													"maxclass" : "outlet",
													"numinlets" : 1,
													"numoutlets" : 0,
													"patching_rect" : [ 10.0, 410.0, 22.0, 22.0 ]
												}

											}
, 											{
												"box" : 												{
													"id" : "obj-7",
													"maxclass" : "button",
													"numinlets" : 1,
													"numoutlets" : 1,
													"outlettype" : [ "bang" ],
													"patching_rect" : [ 320.0, 50.0, 29.0, 29.0 ]
												}

											}
, 											{
												"box" : 												{
													"#init" : "",
													"#loadbang" : 0,
													"#triggerall" : 0,
													"#untuple" : 0,
													"fontname" : "Monaco",
													"fontsize" : 10.0,
													"ftm_scope" : 0,
													"id" : "obj-16",
													"maxclass" : "ftm.mess",
													"numinlets" : 2,
													"numoutlets" : 1,
													"outlettype" : [ "" ],
													"patching_rect" : [ 440.0, 130.0, 102.015625, 18.0 ],
													"presentation_rect" : [ 440.0, 130.0, 102.015625, 18.0 ],
													"text" : [ "_set sounddata $1" ]
												}

											}
, 											{
												"box" : 												{
													"#init" : "",
													"#loadbang" : 0,
													"#triggerall" : 0,
													"#untuple" : 0,
													"fontname" : "Monaco",
													"fontsize" : 10.0,
													"ftm_scope" : 0,
													"id" : "obj-17",
													"maxclass" : "ftm.mess",
													"numinlets" : 2,
													"numoutlets" : 1,
													"outlettype" : [ "" ],
													"patching_rect" : [ 440.0, 90.0, 90.013672, 18.0 ],
													"presentation_rect" : [ 440.0, 90.0, 90.013672, 18.0 ],
													"text" : [ "_/get/sounddata" ]
												}

											}
, 											{
												"box" : 												{
													"fontname" : "Monaco",
													"fontsize" : 10.0,
													"id" : "obj-18",
													"maxclass" : "newobj",
													"numinlets" : 1,
													"numoutlets" : 1,
													"outlettype" : [ "" ],
													"patching_rect" : [ 440.0, 110.0, 129.0, 20.0 ],
													"text" : "cbp.call #2"
												}

											}
, 											{
												"box" : 												{
													"#init" : "",
													"#loadbang" : 0,
													"#triggerall" : 0,
													"#untuple" : 0,
													"fontname" : "Monaco",
													"fontsize" : 10.0,
													"ftm_scope" : 0,
													"id" : "obj-19",
													"maxclass" : "ftm.mess",
													"numinlets" : 2,
													"numoutlets" : 1,
													"outlettype" : [ "" ],
													"patching_rect" : [ 320.0, 90.0, 84.012695, 18.0 ],
													"presentation_rect" : [ 320.0, 90.0, 84.012695, 18.0 ],
													"text" : [ "_/get/unitdata" ]
												}

											}
, 											{
												"box" : 												{
													"fontname" : "Monaco",
													"fontsize" : 10.0,
													"id" : "obj-20",
													"maxclass" : "newobj",
													"numinlets" : 1,
													"numoutlets" : 1,
													"outlettype" : [ "" ],
													"patching_rect" : [ 320.0, 110.0, 129.0, 20.0 ],
													"text" : "cbp.call #2"
												}

											}
, 											{
												"box" : 												{
													"#init" : "",
													"#loadbang" : 0,
													"#triggerall" : 0,
													"#untuple" : 0,
													"fontname" : "Monaco",
													"fontsize" : 10.0,
													"ftm_scope" : 0,
													"id" : "obj-23",
													"maxclass" : "ftm.mess",
													"numinlets" : 2,
													"numoutlets" : 1,
													"outlettype" : [ "" ],
													"patching_rect" : [ 320.0, 130.0, 96.014648, 18.0 ],
													"presentation_rect" : [ 320.0, 130.0, 96.014648, 18.0 ],
													"text" : [ "_set unitdata $1" ]
												}

											}
, 											{
												"box" : 												{
													"description" : "dict",
													"fontname" : "Monaco",
													"fontsize" : 10.0,
													"ftm_scope" : 0,
													"id" : "obj-24",
													"maxclass" : "ftm.object",
													"name" : "local",
													"numinlets" : 1,
													"numoutlets" : 2,
													"outlettype" : [ "", "" ],
													"patching_rect" : [ 320.0, 160.0, 86.012695, 19.0 ],
													"persistence" : 0,
													"presentation_rect" : [ 320.0, 160.0, 86.012695, 19.0 ],
													"scope" : 0,
													"text" : "dict"
												}

											}
, 											{
												"box" : 												{
													"#init" : "",
													"#loadbang" : 0,
													"#triggerall" : 1,
													"#untuple" : 0,
													"fontname" : "Monaco",
													"fontsize" : 10.0,
													"ftm_scope" : 0,
													"id" : "obj-44",
													"maxclass" : "ftm.mess",
													"numinlets" : 3,
													"numins" : 3,
													"numoutlets" : 1,
													"outlettype" : [ "" ],
													"patching_rect" : [ 10.0, 250.0, 312.049805, 18.0 ],
													"presentation_rect" : [ 10.0, 250.0, 312.049805, 18.0 ],
													"text" : [ "_($chunkV refer $local[sounddata][$1 0] col 0 $2 $3)" ]
												}

											}
, 											{
												"box" : 												{
													"#init" : "",
													"#loadbang" : 0,
													"#triggerall" : 0,
													"#untuple" : 0,
													"fontname" : "Monaco",
													"fontsize" : 10.0,
													"ftm_scope" : 0,
													"id" : "obj-48",
													"maxclass" : "ftm.mess",
													"numinlets" : 2,
													"numoutlets" : 1,
													"outlettype" : [ "" ],
													"patching_rect" : [ 100.0, 140.0, 186.029297, 18.0 ],
													"presentation_rect" : [ 100.0, 140.0, 186.029297, 18.0 ],
													"text" : [ "_SoundFile, StartTime, Duration" ]
												}

											}
, 											{
												"box" : 												{
													"fontname" : "Monaco",
													"fontsize" : 10.0,
													"id" : "obj-55",
													"maxclass" : "newobj",
													"numinlets" : 1,
													"numoutlets" : 4,
													"outlettype" : [ "", "", "", "" ],
													"patching_rect" : [ 100.0, 200.0, 224.0, 20.0 ],
													"text" : "cycle 4 1"
												}

											}
, 											{
												"box" : 												{
													"#init" : "",
													"#loadbang" : 0,
													"#triggerall" : 0,
													"#untuple" : 0,
													"fontname" : "Monaco",
													"fontsize" : 10.0,
													"ftm_scope" : 0,
													"id" : "obj-59",
													"maxclass" : "ftm.mess",
													"numinlets" : 2,
													"numoutlets" : 1,
													"outlettype" : [ "" ],
													"patching_rect" : [ 100.0, 160.0, 132.020508, 18.0 ],
													"presentation_rect" : [ 100.0, 160.0, 132.020508, 18.0 ],
													"text" : [ "_/lookup/descriptor $1" ]
												}

											}
, 											{
												"box" : 												{
													"fontname" : "Monaco",
													"fontsize" : 10.0,
													"id" : "obj-60",
													"maxclass" : "newobj",
													"numinlets" : 1,
													"numoutlets" : 1,
													"outlettype" : [ "" ],
													"patching_rect" : [ 100.0, 180.0, 129.0, 20.0 ],
													"text" : "cbp.call #2"
												}

											}
, 											{
												"box" : 												{
													"#init" : "",
													"#loadbang" : 0,
													"#triggerall" : 0,
													"#untuple" : 0,
													"fontname" : "Monaco",
													"fontsize" : 10.0,
													"ftm_scope" : 0,
													"id" : "obj-63",
													"maxclass" : "ftm.mess",
													"numinlets" : 4,
													"numins" : 4,
													"numoutlets" : 1,
													"outlettype" : [ "" ],
													"patching_rect" : [ 10.0, 230.0, 234.037109, 18.0 ],
													"presentation_rect" : [ 10.0, 230.0, 234.037109, 18.0 ],
													"text" : [ "_$1[$2] ($1[$3] * $msr) ($1[$4] * $msr)" ]
												}

											}
, 											{
												"box" : 												{
													"#init" : "",
													"#loadbang" : 0,
													"#triggerall" : 0,
													"#untuple" : 0,
													"fontname" : "Monaco",
													"fontsize" : 10.0,
													"ftm_scope" : 0,
													"id" : "obj-64",
													"linecount" : 2,
													"maxclass" : "ftm.mess",
													"numinlets" : 2,
													"numoutlets" : 1,
													"outlettype" : [ "" ],
													"patching_rect" : [ 10.0, 100.0, 186.0, 31.0 ],
													"presentation_linecount" : 2,
													"presentation_rect" : [ 10.0, 100.0, 186.0, 31.0 ],
													"text" : [ "_refer $local[unitdata] row $1,", "_bang" ]
												}

											}
, 											{
												"box" : 												{
													"description" : "fvec",
													"fontname" : "Monaco",
													"fontsize" : 10.0,
													"ftm_scope" : 0,
													"id" : "obj-65",
													"maxclass" : "ftm.object",
													"name" : "unit",
													"numinlets" : 1,
													"numoutlets" : 2,
													"outlettype" : [ "", "" ],
													"patching_rect" : [ 10.0, 140.0, 80.011719, 19.0 ],
													"persistence" : 0,
													"presentation_rect" : [ 10.0, 140.0, 80.011719, 19.0 ],
													"scope" : 0,
													"text" : "fvec"
												}

											}
 ],
										"lines" : [ 											{
												"patchline" : 												{
													"destination" : [ "obj-8", 0 ],
													"hidden" : 0,
													"midpoints" : [  ],
													"source" : [ "obj-1", 0 ]
												}

											}
, 											{
												"patchline" : 												{
													"destination" : [ "obj-13", 0 ],
													"hidden" : 0,
													"midpoints" : [ 252.5, 397.0, 375.0, 397.0, 375.0, 191.0, 306.0, 191.0, 306.0, 56.0, 19.5, 56.0 ],
													"source" : [ "obj-10", 1 ]
												}

											}
, 											{
												"patchline" : 												{
													"destination" : [ "obj-9", 0 ],
													"hidden" : 0,
													"midpoints" : [  ],
													"source" : [ "obj-10", 0 ]
												}

											}
, 											{
												"patchline" : 												{
													"destination" : [ "obj-4", 1 ],
													"hidden" : 0,
													"midpoints" : [  ],
													"source" : [ "obj-11", 0 ]
												}

											}
, 											{
												"patchline" : 												{
													"destination" : [ "obj-11", 1 ],
													"hidden" : 0,
													"midpoints" : [  ],
													"source" : [ "obj-12", 0 ]
												}

											}
, 											{
												"patchline" : 												{
													"destination" : [ "obj-22", 0 ],
													"hidden" : 0,
													"midpoints" : [  ],
													"source" : [ "obj-13", 0 ]
												}

											}
, 											{
												"patchline" : 												{
													"destination" : [ "obj-64", 0 ],
													"hidden" : 0,
													"midpoints" : [  ],
													"source" : [ "obj-13", 0 ]
												}

											}
, 											{
												"patchline" : 												{
													"destination" : [ "obj-13", 1 ],
													"hidden" : 0,
													"midpoints" : [  ],
													"source" : [ "obj-14", 1 ]
												}

											}
, 											{
												"patchline" : 												{
													"destination" : [ "obj-13", 0 ],
													"hidden" : 0,
													"midpoints" : [  ],
													"source" : [ "obj-14", 0 ]
												}

											}
, 											{
												"patchline" : 												{
													"destination" : [ "obj-11", 0 ],
													"hidden" : 0,
													"midpoints" : [  ],
													"source" : [ "obj-15", 0 ]
												}

											}
, 											{
												"patchline" : 												{
													"destination" : [ "obj-24", 0 ],
													"hidden" : 0,
													"midpoints" : [ 449.5, 153.0, 329.5, 153.0 ],
													"source" : [ "obj-16", 0 ]
												}

											}
, 											{
												"patchline" : 												{
													"destination" : [ "obj-18", 0 ],
													"hidden" : 0,
													"midpoints" : [  ],
													"source" : [ "obj-17", 0 ]
												}

											}
, 											{
												"patchline" : 												{
													"destination" : [ "obj-16", 0 ],
													"hidden" : 0,
													"midpoints" : [  ],
													"source" : [ "obj-18", 0 ]
												}

											}
, 											{
												"patchline" : 												{
													"destination" : [ "obj-20", 0 ],
													"hidden" : 0,
													"midpoints" : [  ],
													"source" : [ "obj-19", 0 ]
												}

											}
, 											{
												"patchline" : 												{
													"destination" : [ "obj-23", 0 ],
													"hidden" : 0,
													"midpoints" : [  ],
													"source" : [ "obj-20", 0 ]
												}

											}
, 											{
												"patchline" : 												{
													"destination" : [ "obj-24", 0 ],
													"hidden" : 0,
													"midpoints" : [  ],
													"source" : [ "obj-23", 0 ]
												}

											}
, 											{
												"patchline" : 												{
													"destination" : [ "obj-7", 0 ],
													"hidden" : 0,
													"midpoints" : [  ],
													"source" : [ "obj-3", 0 ]
												}

											}
, 											{
												"patchline" : 												{
													"destination" : [ "obj-35", 0 ],
													"hidden" : 0,
													"midpoints" : [ 19.5, 363.5, 19.5, 363.5 ],
													"source" : [ "obj-31", 0 ]
												}

											}
, 											{
												"patchline" : 												{
													"destination" : [ "obj-54", 0 ],
													"hidden" : 0,
													"midpoints" : [  ],
													"source" : [ "obj-35", 0 ]
												}

											}
, 											{
												"patchline" : 												{
													"destination" : [ "obj-6", 0 ],
													"hidden" : 0,
													"midpoints" : [  ],
													"source" : [ "obj-35", 1 ]
												}

											}
, 											{
												"patchline" : 												{
													"destination" : [ "obj-10", 0 ],
													"hidden" : 0,
													"midpoints" : [  ],
													"source" : [ "obj-4", 0 ]
												}

											}
, 											{
												"patchline" : 												{
													"destination" : [ "obj-1", 0 ],
													"hidden" : 0,
													"midpoints" : [  ],
													"source" : [ "obj-44", 0 ]
												}

											}
, 											{
												"patchline" : 												{
													"destination" : [ "obj-27", 1 ],
													"hidden" : 0,
													"midpoints" : [ 69.5, 434.0, 225.5, 434.0 ],
													"source" : [ "obj-45", 0 ]
												}

											}
, 											{
												"patchline" : 												{
													"destination" : [ "obj-59", 0 ],
													"hidden" : 0,
													"midpoints" : [  ],
													"source" : [ "obj-48", 0 ]
												}

											}
, 											{
												"patchline" : 												{
													"destination" : [ "obj-5", 0 ],
													"hidden" : 0,
													"midpoints" : [  ],
													"source" : [ "obj-54", 0 ]
												}

											}
, 											{
												"patchline" : 												{
													"destination" : [ "obj-15", 1 ],
													"hidden" : 0,
													"midpoints" : [  ],
													"source" : [ "obj-55", 2 ]
												}

											}
, 											{
												"patchline" : 												{
													"destination" : [ "obj-63", 3 ],
													"hidden" : 0,
													"midpoints" : [  ],
													"source" : [ "obj-55", 2 ]
												}

											}
, 											{
												"patchline" : 												{
													"destination" : [ "obj-63", 2 ],
													"hidden" : 0,
													"midpoints" : [  ],
													"source" : [ "obj-55", 1 ]
												}

											}
, 											{
												"patchline" : 												{
													"destination" : [ "obj-63", 1 ],
													"hidden" : 0,
													"midpoints" : [  ],
													"source" : [ "obj-55", 0 ]
												}

											}
, 											{
												"patchline" : 												{
													"destination" : [ "obj-27", 0 ],
													"hidden" : 0,
													"midpoints" : [  ],
													"source" : [ "obj-57", 0 ]
												}

											}
, 											{
												"patchline" : 												{
													"destination" : [ "obj-60", 0 ],
													"hidden" : 0,
													"midpoints" : [  ],
													"source" : [ "obj-59", 0 ]
												}

											}
, 											{
												"patchline" : 												{
													"destination" : [ "obj-57", 0 ],
													"hidden" : 0,
													"midpoints" : [  ],
													"source" : [ "obj-6", 0 ]
												}

											}
, 											{
												"patchline" : 												{
													"destination" : [ "obj-55", 0 ],
													"hidden" : 0,
													"midpoints" : [  ],
													"source" : [ "obj-60", 0 ]
												}

											}
, 											{
												"patchline" : 												{
													"destination" : [ "obj-44", 0 ],
													"hidden" : 0,
													"midpoints" : [  ],
													"source" : [ "obj-63", 0 ]
												}

											}
, 											{
												"patchline" : 												{
													"destination" : [ "obj-65", 0 ],
													"hidden" : 0,
													"midpoints" : [  ],
													"source" : [ "obj-64", 0 ]
												}

											}
, 											{
												"patchline" : 												{
													"destination" : [ "obj-15", 0 ],
													"hidden" : 0,
													"midpoints" : [ 19.5, 224.0, 309.5, 224.0 ],
													"source" : [ "obj-65", 0 ]
												}

											}
, 											{
												"patchline" : 												{
													"destination" : [ "obj-63", 0 ],
													"hidden" : 0,
													"midpoints" : [  ],
													"source" : [ "obj-65", 0 ]
												}

											}
, 											{
												"patchline" : 												{
													"destination" : [ "obj-17", 0 ],
													"hidden" : 0,
													"midpoints" : [ 329.5, 85.0, 449.5, 85.0 ],
													"source" : [ "obj-7", 0 ]
												}

											}
, 											{
												"patchline" : 												{
													"destination" : [ "obj-19", 0 ],
													"hidden" : 0,
													"midpoints" : [  ],
													"source" : [ "obj-7", 0 ]
												}

											}
, 											{
												"patchline" : 												{
													"destination" : [ "obj-48", 0 ],
													"hidden" : 0,
													"midpoints" : [ 329.5, 85.0, 2.0, 85.0, 2.0, 135.0, 109.5, 135.0 ],
													"source" : [ "obj-7", 0 ]
												}

											}
, 											{
												"patchline" : 												{
													"destination" : [ "obj-14", 0 ],
													"hidden" : 0,
													"midpoints" : [  ],
													"source" : [ "obj-70", 0 ]
												}

											}
, 											{
												"patchline" : 												{
													"destination" : [ "obj-31", 0 ],
													"hidden" : 0,
													"midpoints" : [  ],
													"source" : [ "obj-8", 0 ]
												}

											}
, 											{
												"patchline" : 												{
													"destination" : [ "obj-4", 0 ],
													"hidden" : 0,
													"midpoints" : [  ],
													"source" : [ "obj-8", 1 ]
												}

											}
 ]
									}
,
									"patching_rect" : [ 10.0, 60.0, 378.0, 20.0 ],
									"saved_object_attributes" : 									{
										"default_fontsize" : 12.0,
										"fontface" : 0,
										"fontsize" : 12.0,
										"default_fontface" : 0,
										"globalpatchername" : "",
										"default_fontname" : "Arial",
										"fontname" : "Arial"
									}
,
									"text" : "p simple_chunk_player"
								}

							}
, 							{
								"box" : 								{
									"fontname" : "Monaco",
									"fontsize" : 10.0,
									"id" : "obj-15",
									"maxclass" : "newobj",
									"numinlets" : 3,
									"numoutlets" : 1,
									"outlettype" : [ "signal" ],
									"patching_rect" : [ 10.0, 160.0, 99.0, 20.0 ],
									"saved_object_attributes" : 									{
										"ftm_scope" : 2
									}
,
									"text" : "gbr.ola~ 1 #1"
								}

							}
 ],
						"lines" : [ 							{
								"patchline" : 								{
									"destination" : [ "obj-14", 3 ],
									"hidden" : 0,
									"midpoints" : [  ],
									"source" : [ "obj-1", 3 ]
								}

							}
, 							{
								"patchline" : 								{
									"destination" : [ "obj-14", 2 ],
									"hidden" : 0,
									"midpoints" : [  ],
									"source" : [ "obj-1", 2 ]
								}

							}
, 							{
								"patchline" : 								{
									"destination" : [ "obj-14", 1 ],
									"hidden" : 0,
									"midpoints" : [  ],
									"source" : [ "obj-1", 1 ]
								}

							}
, 							{
								"patchline" : 								{
									"destination" : [ "obj-14", 0 ],
									"hidden" : 0,
									"midpoints" : [  ],
									"source" : [ "obj-1", 0 ]
								}

							}
, 							{
								"patchline" : 								{
									"destination" : [ "obj-15", 0 ],
									"hidden" : 0,
									"midpoints" : [  ],
									"source" : [ "obj-12", 0 ]
								}

							}
, 							{
								"patchline" : 								{
									"destination" : [ "obj-2", 0 ],
									"hidden" : 0,
									"midpoints" : [  ],
									"source" : [ "obj-14", 0 ]
								}

							}
, 							{
								"patchline" : 								{
									"destination" : [ "obj-5", 0 ],
									"hidden" : 0,
									"midpoints" : [  ],
									"source" : [ "obj-14", 1 ]
								}

							}
, 							{
								"patchline" : 								{
									"destination" : [ "obj-4", 0 ],
									"hidden" : 0,
									"midpoints" : [  ],
									"source" : [ "obj-15", 0 ]
								}

							}
, 							{
								"patchline" : 								{
									"destination" : [ "obj-12", 0 ],
									"hidden" : 0,
									"midpoints" : [  ],
									"source" : [ "obj-2", 0 ]
								}

							}
, 							{
								"patchline" : 								{
									"destination" : [ "obj-1", 0 ],
									"hidden" : 0,
									"midpoints" : [  ],
									"source" : [ "obj-3", 0 ]
								}

							}
 ]
					}
,
					"patching_rect" : [ 70.0, 270.0, 47.0, 20.0 ],
					"saved_object_attributes" : 					{
						"default_fontsize" : 10.0,
						"fontface" : 0,
						"fontsize" : 10.0,
						"default_fontface" : 0,
						"globalpatchername" : "",
						"default_fontname" : "Helvetica Neue",
						"fontname" : "Helvetica Neue"
					}
,
					"text" : "p guts"
				}

			}
, 			{
				"box" : 				{
					"comment" : "",
					"id" : "obj-45",
					"maxclass" : "outlet",
					"numinlets" : 1,
					"numoutlets" : 0,
					"patching_rect" : [ 5.0, 195.0, 24.0, 24.0 ]
				}

			}
, 			{
				"box" : 				{
					"bgcolor" : [ 0.933, 0.933, 0.933, 1.0 ],
					"bordercolor" : [ 0.667, 0.667, 0.667, 1.0 ],
					"has_gain" : 1,
					"has_meters" : 1,
					"has_mix" : 1,
					"has_mute" : 1,
					"id" : "obj-37",
					"maxclass" : "jcom.ui",
					"numinlets" : 1,
					"numoutlets" : 1,
					"outlettype" : [ "" ],
					"prefix" : "audio",
					"presentation" : 1,
					"presentation_rect" : [ 0.0, 0.0, 300.0, 70.0 ],
					"text" : "/chain1.demo"
				}

			}
 ],
		"lines" : [ 			{
				"patchline" : 				{
					"destination" : [ "obj-11", 0 ],
					"hidden" : 0,
					"midpoints" : [  ],
					"source" : [ "obj-10", 0 ]
				}

			}
, 			{
				"patchline" : 				{
					"destination" : [ "obj-10", 0 ],
					"hidden" : 0,
					"midpoints" : [  ],
					"source" : [ "obj-11", 0 ]
				}

			}
, 			{
				"patchline" : 				{
					"destination" : [ "obj-3", 0 ],
					"hidden" : 0,
					"midpoints" : [  ],
					"source" : [ "obj-2", 0 ]
				}

			}
, 			{
				"patchline" : 				{
					"destination" : [ "obj-2", 0 ],
					"hidden" : 0,
					"midpoints" : [  ],
					"source" : [ "obj-3", 0 ]
				}

			}
, 			{
				"patchline" : 				{
					"destination" : [ "obj-45", 0 ],
					"hidden" : 0,
					"midpoints" : [  ],
					"source" : [ "obj-30", 0 ]
				}

			}
, 			{
				"patchline" : 				{
					"destination" : [ "obj-30", 0 ],
					"hidden" : 0,
					"midpoints" : [  ],
					"source" : [ "obj-32", 0 ]
				}

			}
, 			{
				"patchline" : 				{
					"destination" : [ "obj-30", 0 ],
					"hidden" : 0,
					"midpoints" : [ 214.5, 136.0, 14.5, 136.0 ],
					"source" : [ "obj-33", 0 ]
				}

			}
, 			{
				"patchline" : 				{
					"destination" : [ "obj-4", 0 ],
					"hidden" : 0,
					"midpoints" : [  ],
					"source" : [ "obj-43", 1 ]
				}

			}
, 			{
				"patchline" : 				{
					"destination" : [ "obj-7", 0 ],
					"hidden" : 0,
					"midpoints" : [  ],
					"source" : [ "obj-43", 0 ]
				}

			}
, 			{
				"patchline" : 				{
					"destination" : [ "obj-69", 0 ],
					"hidden" : 0,
					"midpoints" : [  ],
					"source" : [ "obj-50", 0 ]
				}

			}
, 			{
				"patchline" : 				{
					"destination" : [ "obj-45", 0 ],
					"hidden" : 0,
					"midpoints" : [  ],
					"source" : [ "obj-52", 0 ]
				}

			}
, 			{
				"patchline" : 				{
					"destination" : [ "obj-54", 0 ],
					"hidden" : 0,
					"midpoints" : [  ],
					"source" : [ "obj-52", 0 ]
				}

			}
, 			{
				"patchline" : 				{
					"destination" : [ "obj-30", 0 ],
					"hidden" : 0,
					"midpoints" : [ 39.5, 136.0, 14.5, 136.0 ],
					"source" : [ "obj-6", 0 ]
				}

			}
, 			{
				"patchline" : 				{
					"destination" : [ "obj-50", 0 ],
					"hidden" : 0,
					"midpoints" : [  ],
					"source" : [ "obj-69", 0 ]
				}

			}
, 			{
				"patchline" : 				{
					"destination" : [ "obj-35", 0 ],
					"hidden" : 0,
					"midpoints" : [  ],
					"source" : [ "obj-7", 0 ]
				}

			}
, 			{
				"patchline" : 				{
					"destination" : [ "obj-12", 1 ],
					"hidden" : 0,
					"midpoints" : [ 79.5, 240.5, 367.5, 240.5 ],
					"source" : [ "obj-8", 0 ]
				}

			}
, 			{
				"patchline" : 				{
					"destination" : [ "obj-43", 0 ],
					"hidden" : 0,
					"midpoints" : [  ],
					"source" : [ "obj-8", 0 ]
				}

			}
, 			{
				"patchline" : 				{
					"destination" : [ "obj-30", 0 ],
					"hidden" : 0,
					"midpoints" : [ 54.5, 136.0, 14.5, 136.0 ],
					"source" : [ "obj-9", 0 ]
				}

			}
 ]
	}

}
