{
	"patcher" : 	{
		"fileversion" : 1,
		"rect" : [ 545.0, 44.0, 521.0, 477.0 ],
		"bglocked" : 0,
		"defrect" : [ 545.0, 44.0, 521.0, 477.0 ],
		"openrect" : [ 0.0, 0.0, 0.0, 0.0 ],
		"openinpresentation" : 0,
		"default_fontsize" : 12.0,
		"default_fontface" : 0,
		"default_fontname" : "Arial",
		"gridonopen" : 0,
		"gridsize" : [ 10.0, 10.0 ],
		"gridsnaponopen" : 0,
		"toolbarvisible" : 1,
		"boxanimatetime" : 200,
		"imprint" : 0,
		"enablehscroll" : 1,
		"enablevscroll" : 1,
		"devicewidth" : 0.0,
		"boxes" : [ 			{
				"box" : 				{
					"fontname" : "Arial",
					"fontsize" : 9.0,
					"id" : "obj-9",
					"maxclass" : "newobj",
					"numinlets" : 1,
					"numoutlets" : 1,
					"outlettype" : [ "bang" ],
					"patching_rect" : [ 170.0, 230.0, 48.0, 17.0 ],
					"text" : "loadbang"
				}

			}
, 			{
				"box" : 				{
					"fontname" : "Arial",
					"fontsize" : 9.0,
					"id" : "obj-57",
					"maxclass" : "newobj",
					"numinlets" : 1,
					"numoutlets" : 1,
					"outlettype" : [ "" ],
					"patcher" : 					{
						"fileversion" : 1,
						"rect" : [ 25.0, 69.0, 322.0, 239.0 ],
						"bglocked" : 0,
						"defrect" : [ 25.0, 69.0, 322.0, 239.0 ],
						"openrect" : [ 0.0, 0.0, 0.0, 0.0 ],
						"openinpresentation" : 0,
						"default_fontsize" : 12.0,
						"default_fontface" : 0,
						"default_fontname" : "Arial",
						"gridonopen" : 0,
						"gridsize" : [ 10.0, 10.0 ],
						"gridsnaponopen" : 0,
						"toolbarvisible" : 1,
						"boxanimatetime" : 200,
						"imprint" : 0,
						"enablehscroll" : 1,
						"enablevscroll" : 1,
						"devicewidth" : 0.0,
						"boxes" : [ 							{
								"box" : 								{
									"comment" : "",
									"id" : "obj-2",
									"maxclass" : "outlet",
									"numinlets" : 1,
									"numoutlets" : 0,
									"patching_rect" : [ 20.0, 119.0, 15.0, 15.0 ]
								}

							}
, 							{
								"box" : 								{
									"comment" : "",
									"id" : "obj-3",
									"maxclass" : "inlet",
									"numinlets" : 0,
									"numoutlets" : 1,
									"outlettype" : [ "int" ],
									"patching_rect" : [ 20.0, 22.0, 15.0, 15.0 ]
								}

							}
, 							{
								"box" : 								{
									"#init" : "0 1024",
									"#loadbang" : 0,
									"#triggerall" : 0,
									"#untuple" : 0,
									"fontname" : "Geneva",
									"fontsize" : 9.0,
									"ftm_scope" : 1,
									"id" : "obj-4",
									"maxclass" : "ftm.mess",
									"numinlets" : 2,
									"numoutlets" : 1,
									"outlettype" : [ "" ],
									"patching_rect" : [ 20.0, 70.0, 163.688965, 17.0 ],
									"presentation_rect" : [ 20.0, 70.0, 163.688965, 17.0 ],
									"text" : [ "_(ceil (($nfft * $1) / $FTM.audio.sr))" ]
								}

							}
 ],
						"lines" : [ 							{
								"patchline" : 								{
									"destination" : [ "obj-4", 0 ],
									"hidden" : 0,
									"midpoints" : [  ],
									"source" : [ "obj-3", 0 ]
								}

							}
, 							{
								"patchline" : 								{
									"destination" : [ "obj-2", 0 ],
									"hidden" : 0,
									"midpoints" : [  ],
									"source" : [ "obj-4", 0 ]
								}

							}
 ]
					}
,
					"patching_rect" : [ 220.0, 290.0, 76.0, 17.0 ],
					"saved_object_attributes" : 					{
						"default_fontface" : 0,
						"globalpatchername" : "",
						"default_fontname" : "Arial",
						"fontface" : 0,
						"fontsize" : 12.0,
						"default_fontsize" : 12.0,
						"fontname" : "Arial"
					}
,
					"text" : "p catart.freq2bin"
				}

			}
, 			{
				"box" : 				{
					"comment" : "",
					"id" : "obj-1",
					"maxclass" : "outlet",
					"numinlets" : 1,
					"numoutlets" : 0,
					"patching_rect" : [ 300.0, 270.0, 15.0, 15.0 ]
				}

			}
, 			{
				"box" : 				{
					"fontname" : "Arial",
					"fontsize" : 9.0,
					"id" : "obj-2",
					"maxclass" : "newobj",
					"numinlets" : 1,
					"numoutlets" : 1,
					"outlettype" : [ "" ],
					"patcher" : 					{
						"fileversion" : 1,
						"rect" : [ 10.0, 59.0, 146.0, 189.0 ],
						"bglocked" : 0,
						"defrect" : [ 10.0, 59.0, 146.0, 189.0 ],
						"openrect" : [ 0.0, 0.0, 0.0, 0.0 ],
						"openinpresentation" : 0,
						"default_fontsize" : 12.0,
						"default_fontface" : 0,
						"default_fontname" : "Arial",
						"gridonopen" : 0,
						"gridsize" : [ 10.0, 10.0 ],
						"gridsnaponopen" : 0,
						"toolbarvisible" : 1,
						"boxanimatetime" : 200,
						"imprint" : 0,
						"enablehscroll" : 1,
						"enablevscroll" : 1,
						"devicewidth" : 0.0,
						"boxes" : [ 							{
								"box" : 								{
									"comment" : "",
									"id" : "obj-1",
									"maxclass" : "inlet",
									"numinlets" : 0,
									"numoutlets" : 1,
									"outlettype" : [ "" ],
									"patching_rect" : [ 19.0, 33.0, 15.0, 15.0 ]
								}

							}
, 							{
								"box" : 								{
									"comment" : "",
									"id" : "obj-2",
									"maxclass" : "outlet",
									"numinlets" : 1,
									"numoutlets" : 0,
									"patching_rect" : [ 20.0, 112.0, 15.0, 15.0 ]
								}

							}
, 							{
								"box" : 								{
									"#init" : "",
									"#loadbang" : 0,
									"#triggerall" : 0,
									"#untuple" : 0,
									"fontname" : "Geneva",
									"fontsize" : 9.0,
									"ftm_scope" : 0,
									"id" : "obj-3",
									"maxclass" : "ftm.mess",
									"numinlets" : 2,
									"numoutlets" : 1,
									"outlettype" : [ "" ],
									"patching_rect" : [ 21.0, 76.0, 38.928223, 17.0 ],
									"presentation_rect" : [ 21.0, 76.0, 38.928223, 17.0 ],
									"text" : [ "_($1 zc)" ]
								}

							}
 ],
						"lines" : [ 							{
								"patchline" : 								{
									"destination" : [ "obj-3", 0 ],
									"hidden" : 0,
									"midpoints" : [  ],
									"source" : [ "obj-1", 0 ]
								}

							}
, 							{
								"patchline" : 								{
									"destination" : [ "obj-2", 0 ],
									"hidden" : 0,
									"midpoints" : [  ],
									"source" : [ "obj-3", 0 ]
								}

							}
 ]
					}
,
					"patching_rect" : [ 170.0, 150.0, 50.0, 17.0 ],
					"saved_object_attributes" : 					{
						"default_fontface" : 0,
						"globalpatchername" : "",
						"default_fontname" : "Arial",
						"fontface" : 0,
						"fontsize" : 12.0,
						"default_fontsize" : 12.0,
						"fontname" : "Arial"
					}
,
					"text" : "p zx"
				}

			}
, 			{
				"box" : 				{
					"#init" : "",
					"#loadbang" : 0,
					"#triggerall" : 0,
					"#untuple" : 0,
					"fontname" : "Geneva",
					"fontsize" : 9.0,
					"ftm_scope" : 0,
					"id" : "obj-3",
					"maxclass" : "ftm.mess",
					"numinlets" : 2,
					"numoutlets" : 1,
					"outlettype" : [ "" ],
					"patching_rect" : [ 250.0, 460.0, 81.0, 17.0 ],
					"presentation_rect" : [ 250.0, 460.0, 81.0, 17.0 ],
					"text" : [ "_(print sr = $sr)" ]
				}

			}
, 			{
				"box" : 				{
					"fontname" : "Arial",
					"fontsize" : 9.0,
					"frgb" : [ 0.0, 0.0, 0.0, 1.0 ],
					"id" : "obj-4",
					"maxclass" : "comment",
					"numinlets" : 1,
					"numoutlets" : 0,
					"patching_rect" : [ 410.0, 10.0, 75.0, 17.0 ],
					"text" : "init"
				}

			}
, 			{
				"box" : 				{
					"comment" : "sig. vect",
					"id" : "obj-5",
					"maxclass" : "inlet",
					"numinlets" : 0,
					"numoutlets" : 1,
					"outlettype" : [ "" ],
					"patching_rect" : [ 390.0, 10.0, 15.0, 15.0 ]
				}

			}
, 			{
				"box" : 				{
					"fontname" : "Arial",
					"fontsize" : 9.0,
					"id" : "obj-6",
					"maxclass" : "newobj",
					"numinlets" : 1,
					"numoutlets" : 3,
					"outlettype" : [ "int", "bang", "bang" ],
					"patching_rect" : [ 392.0, 230.0, 50.0, 17.0 ],
					"text" : "t i b b"
				}

			}
, 			{
				"box" : 				{
					"#init" : "",
					"#loadbang" : 1,
					"#triggerall" : 0,
					"#untuple" : 0,
					"fontname" : "Geneva",
					"fontsize" : 9.0,
					"ftm_scope" : 0,
					"id" : "obj-7",
					"maxclass" : "ftm.mess",
					"numinlets" : 2,
					"numoutlets" : 1,
					"outlettype" : [ "" ],
					"patching_rect" : [ 392.0, 205.0, 50.0, 17.0 ],
					"presentation_rect" : [ 392.0, 205.0, 50.0, 16.001465 ],
					"text" : [ "_2" ]
				}

			}
, 			{
				"box" : 				{
					"comment" : "",
					"id" : "obj-8",
					"maxclass" : "outlet",
					"numinlets" : 1,
					"numoutlets" : 0,
					"patching_rect" : [ 500.0, 460.0, 15.0, 15.0 ]
				}

			}
, 			{
				"box" : 				{
					"fontname" : "Arial",
					"fontsize" : 9.0,
					"id" : "obj-11",
					"maxclass" : "message",
					"numinlets" : 2,
					"numoutlets" : 1,
					"outlettype" : [ "" ],
					"patching_rect" : [ 250.0, 318.0, 32.0, 15.0 ],
					"text" : "print"
				}

			}
, 			{
				"box" : 				{
					"description" : "$FTM.audio.sr",
					"fontname" : "Geneva",
					"fontsize" : 9.0,
					"ftm_scope" : 0,
					"id" : "obj-16",
					"maxclass" : "ftm.object",
					"name" : "sr",
					"numinlets" : 1,
					"numoutlets" : 2,
					"outlettype" : [ "", "" ],
					"patching_rect" : [ 250.0, 435.0, 87.844246, 18.0 ],
					"persistence" : 0,
					"presentation_rect" : [ 250.0, 435.0, 87.844246, 18.0 ],
					"scope" : 0,
					"text" : "$FTM.audio.sr"
				}

			}
, 			{
				"box" : 				{
					"description" : "0.000001",
					"fontname" : "Geneva",
					"fontsize" : 9.0,
					"ftm_scope" : 0,
					"id" : "obj-17",
					"maxclass" : "ftm.object",
					"name" : "epsilon",
					"numinlets" : 1,
					"numoutlets" : 2,
					"outlettype" : [ "", "" ],
					"patching_rect" : [ 250.0, 410.0, 94.053711, 18.0 ],
					"persistence" : 0,
					"presentation_rect" : [ 250.0, 410.0, 94.053711, 18.0 ],
					"scope" : 0,
					"text" : "0.000001"
				}

			}
, 			{
				"box" : 				{
					"#init" : "",
					"#loadbang" : 0,
					"#triggerall" : 0,
					"#untuple" : 0,
					"fontname" : "Geneva",
					"fontsize" : 9.0,
					"ftm_scope" : 0,
					"id" : "obj-18",
					"maxclass" : "ftm.mess",
					"numinlets" : 2,
					"numoutlets" : 1,
					"outlettype" : [ "" ],
					"patching_rect" : [ 0.0, 90.0, 53.0, 17.0 ],
					"presentation_rect" : [ 0.0, 90.0, 53.0, 16.001465 ],
					"text" : [ "_($1 cabs)" ]
				}

			}
, 			{
				"box" : 				{
					"comment" : "",
					"id" : "obj-19",
					"maxclass" : "outlet",
					"numinlets" : 1,
					"numoutlets" : 0,
					"patching_rect" : [ 350.0, 70.0, 15.0, 15.0 ]
				}

			}
, 			{
				"box" : 				{
					"comment" : "",
					"id" : "obj-20",
					"maxclass" : "outlet",
					"numinlets" : 1,
					"numoutlets" : 0,
					"patching_rect" : [ 320.0, 270.0, 15.0, 15.0 ]
				}

			}
, 			{
				"box" : 				{
					"comment" : "",
					"id" : "obj-21",
					"maxclass" : "outlet",
					"numinlets" : 1,
					"numoutlets" : 0,
					"patching_rect" : [ 120.0, 460.0, 15.0, 15.0 ]
				}

			}
, 			{
				"box" : 				{
					"comment" : "",
					"id" : "obj-22",
					"maxclass" : "outlet",
					"numinlets" : 1,
					"numoutlets" : 0,
					"patching_rect" : [ 60.0, 460.0, 15.0, 15.0 ]
				}

			}
, 			{
				"box" : 				{
					"comment" : "",
					"id" : "obj-23",
					"maxclass" : "outlet",
					"numinlets" : 1,
					"numoutlets" : 0,
					"patching_rect" : [ 0.0, 460.0, 15.0, 15.0 ]
				}

			}
, 			{
				"box" : 				{
					"#init" : "",
					"#loadbang" : 0,
					"#triggerall" : 0,
					"#untuple" : 0,
					"fontname" : "Geneva",
					"fontsize" : 9.0,
					"ftm_scope" : 0,
					"id" : "obj-24",
					"maxclass" : "ftm.mess",
					"numinlets" : 2,
					"numoutlets" : 1,
					"outlettype" : [ "" ],
					"patching_rect" : [ 391.0, 307.0, 89.0, 17.0 ],
					"presentation_rect" : [ 391.0, 307.0, 89.0, 16.001465 ],
					"text" : [ "_($ramp fill $nfft)" ]
				}

			}
, 			{
				"box" : 				{
					"fontname" : "Arial",
					"fontsize" : 9.0,
					"id" : "obj-25",
					"maxclass" : "newobj",
					"numinlets" : 2,
					"numoutlets" : 1,
					"outlettype" : [ "" ],
					"patching_rect" : [ 391.0, 329.0, 124.0, 17.0 ],
					"saved_object_attributes" : 					{
						"ftm_scope" : 0
					}
,
					"text" : "gbr.wind= fadein% 0 100"
				}

			}
, 			{
				"box" : 				{
					"description" : "fmat $nfft, fill $nfft",
					"fontname" : "Geneva",
					"fontsize" : 9.0,
					"ftm_scope" : 0,
					"id" : "obj-26",
					"maxclass" : "ftm.object",
					"name" : "ramp",
					"numinlets" : 1,
					"numoutlets" : 2,
					"outlettype" : [ "", "" ],
					"patching_rect" : [ 250.0, 335.0, 127.777336, 18.0 ],
					"persistence" : 0,
					"presentation_rect" : [ 250.0, 335.0, 127.777336, 18.0 ],
					"scope" : 0,
					"text" : "fmat $nfft, fill $nfft"
				}

			}
, 			{
				"box" : 				{
					"description" : "1024",
					"fontname" : "Geneva",
					"fontsize" : 9.0,
					"ftm_scope" : 0,
					"id" : "obj-27",
					"maxclass" : "ftm.object",
					"name" : "nfft",
					"numinlets" : 1,
					"numoutlets" : 2,
					"outlettype" : [ "", "" ],
					"patching_rect" : [ 250.0, 384.0, 59.477539, 18.0 ],
					"persistence" : 0,
					"presentation_rect" : [ 250.0, 384.0, 59.477539, 18.0 ],
					"scope" : 0,
					"text" : "1024"
				}

			}
, 			{
				"box" : 				{
					"description" : "1024",
					"fontname" : "Geneva",
					"fontsize" : 9.0,
					"ftm_scope" : 0,
					"id" : "obj-28",
					"maxclass" : "ftm.object",
					"name" : "winsize",
					"numinlets" : 1,
					"numoutlets" : 2,
					"outlettype" : [ "", "" ],
					"patching_rect" : [ 250.0, 360.0, 74.458496, 18.0 ],
					"persistence" : 0,
					"presentation_rect" : [ 250.0, 360.0, 74.458496, 18.0 ],
					"scope" : 0,
					"text" : "1024"
				}

			}
, 			{
				"box" : 				{
					"fontname" : "Arial",
					"fontsize" : 9.0,
					"frgb" : [ 0.0, 0.0, 0.0, 1.0 ],
					"id" : "obj-29",
					"maxclass" : "comment",
					"numinlets" : 1,
					"numoutlets" : 0,
					"patching_rect" : [ 67.0, 125.0, 100.0, 17.0 ],
					"text" : "fft magnitude frame"
				}

			}
, 			{
				"box" : 				{
					"fontname" : "Arial",
					"fontsize" : 9.0,
					"id" : "obj-30",
					"maxclass" : "newobj",
					"numinlets" : 1,
					"numoutlets" : 5,
					"outlettype" : [ "", "", "", "", "" ],
					"patching_rect" : [ 0.0, 30.0, 372.0, 17.0 ],
					"text" : "t l l l l l"
				}

			}
, 			{
				"box" : 				{
					"fontname" : "Arial",
					"fontsize" : 9.0,
					"id" : "obj-31",
					"maxclass" : "newobj",
					"numinlets" : 2,
					"numoutlets" : 1,
					"outlettype" : [ "" ],
					"patching_rect" : [ 0.0, 50.0, 97.0, 17.0 ],
					"saved_object_attributes" : 					{
						"ftm_scope" : 0
					}
,
					"text" : "gbr.wind= hamming"
				}

			}
, 			{
				"box" : 				{
					"fontname" : "Arial",
					"fontsize" : 9.0,
					"id" : "obj-32",
					"maxclass" : "newobj",
					"numinlets" : 1,
					"numoutlets" : 1,
					"outlettype" : [ "" ],
					"patching_rect" : [ 0.0, 70.0, 40.0, 17.0 ],
					"saved_object_attributes" : 					{
						"ftm_scope" : 0
					}
,
					"text" : "gbr.fft"
				}

			}
, 			{
				"box" : 				{
					"color" : [ 1.0, 0.360784, 0.682353, 1.0 ],
					"fontname" : "Arial",
					"fontsize" : 9.0,
					"id" : "obj-33",
					"linecount" : 2,
					"maxclass" : "newobj",
					"numinlets" : 1,
					"numoutlets" : 1,
					"outlettype" : [ "" ],
					"patcher" : 					{
						"fileversion" : 1,
						"rect" : [ 6.0, 44.0, 600.0, 426.0 ],
						"bglocked" : 0,
						"defrect" : [ 6.0, 44.0, 600.0, 426.0 ],
						"openrect" : [ 0.0, 0.0, 0.0, 0.0 ],
						"openinpresentation" : 0,
						"default_fontsize" : 12.0,
						"default_fontface" : 0,
						"default_fontname" : "Arial",
						"gridonopen" : 0,
						"gridsize" : [ 10.0, 10.0 ],
						"gridsnaponopen" : 0,
						"toolbarvisible" : 1,
						"boxanimatetime" : 200,
						"imprint" : 0,
						"enablehscroll" : 1,
						"enablevscroll" : 1,
						"devicewidth" : 0.0,
						"boxes" : [ 							{
								"box" : 								{
									"#init" : "",
									"#loadbang" : 0,
									"#triggerall" : 0,
									"#untuple" : 0,
									"fontname" : "Geneva",
									"fontsize" : 9.0,
									"ftm_scope" : 0,
									"id" : "obj-1",
									"maxclass" : "ftm.mess",
									"numinlets" : 2,
									"numoutlets" : 1,
									"outlettype" : [ "" ],
									"patching_rect" : [ 290.0, 236.0, 77.191406, 17.0 ],
									"presentation_rect" : [ 290.0, 236.0, 77.191406, 17.0 ],
									"text" : [ "_(print ($1 size))" ]
								}

							}
, 							{
								"box" : 								{
									"comment" : "",
									"id" : "obj-2",
									"maxclass" : "outlet",
									"numinlets" : 1,
									"numoutlets" : 0,
									"patching_rect" : [ 195.0, 302.0, 15.0, 15.0 ]
								}

							}
, 							{
								"box" : 								{
									"fontname" : "Arial",
									"fontsize" : 9.0,
									"id" : "obj-3",
									"maxclass" : "newobj",
									"numinlets" : 1,
									"numoutlets" : 2,
									"outlettype" : [ "bang", "" ],
									"patching_rect" : [ 195.0, 138.0, 64.0, 17.0 ],
									"text" : "t b l"
								}

							}
, 							{
								"box" : 								{
									"comment" : "",
									"id" : "obj-4",
									"maxclass" : "inlet",
									"numinlets" : 0,
									"numoutlets" : 1,
									"outlettype" : [ "" ],
									"patching_rect" : [ 195.0, 96.0, 15.0, 15.0 ]
								}

							}
, 							{
								"box" : 								{
									"#init" : "",
									"#loadbang" : 0,
									"#triggerall" : 0,
									"#untuple" : 0,
									"fontname" : "Geneva",
									"fontsize" : 9.0,
									"ftm_scope" : 0,
									"id" : "obj-5",
									"maxclass" : "ftm.mess",
									"numinlets" : 2,
									"numoutlets" : 1,
									"outlettype" : [ "" ],
									"patching_rect" : [ 195.0, 262.0, 46.921875, 17.0 ],
									"presentation_rect" : [ 195.0, 262.0, 46.921875, 17.0 ],
									"text" : [ "_($1 sum)" ]
								}

							}
, 							{
								"box" : 								{
									"#init" : "",
									"#loadbang" : 0,
									"#triggerall" : 0,
									"#untuple" : 0,
									"fontname" : "Geneva",
									"fontsize" : 9.0,
									"ftm_scope" : 0,
									"id" : "obj-6",
									"maxclass" : "ftm.mess",
									"numinlets" : 2,
									"numoutlets" : 1,
									"outlettype" : [ "" ],
									"patching_rect" : [ 195.0, 236.0, 59.450684, 17.0 ],
									"presentation_rect" : [ 195.0, 236.0, 59.450684, 17.0 ],
									"text" : [ "_($1 mul $2)" ]
								}

							}
, 							{
								"box" : 								{
									"#init" : "",
									"#loadbang" : 0,
									"#triggerall" : 0,
									"#untuple" : 0,
									"fontname" : "Geneva",
									"fontsize" : 9.0,
									"ftm_scope" : 0,
									"id" : "obj-7",
									"maxclass" : "ftm.mess",
									"numinlets" : 2,
									"numoutlets" : 1,
									"outlettype" : [ "" ],
									"patching_rect" : [ 195.0, 173.0, 137.756836, 17.0 ],
									"presentation_rect" : [ 195.0, 173.0, 137.756836, 17.0 ],
									"text" : [ "_($ramp colref 0 0 ($nfft / 2))" ]
								}

							}
, 							{
								"box" : 								{
									"fontname" : "Arial",
									"fontsize" : 9.0,
									"id" : "obj-8",
									"maxclass" : "newobj",
									"numinlets" : 2,
									"numoutlets" : 1,
									"outlettype" : [ "" ],
									"patching_rect" : [ 195.0, 199.0, 73.0, 17.0 ],
									"saved_object_attributes" : 									{
										"ftm_scope" : 0
									}
,
									"text" : "ftm.copy fmat"
								}

							}
 ],
						"lines" : [ 							{
								"patchline" : 								{
									"destination" : [ "obj-6", 1 ],
									"hidden" : 0,
									"midpoints" : [  ],
									"source" : [ "obj-3", 1 ]
								}

							}
, 							{
								"patchline" : 								{
									"destination" : [ "obj-7", 0 ],
									"hidden" : 0,
									"midpoints" : [  ],
									"source" : [ "obj-3", 0 ]
								}

							}
, 							{
								"patchline" : 								{
									"destination" : [ "obj-3", 0 ],
									"hidden" : 0,
									"midpoints" : [  ],
									"source" : [ "obj-4", 0 ]
								}

							}
, 							{
								"patchline" : 								{
									"destination" : [ "obj-2", 0 ],
									"hidden" : 0,
									"midpoints" : [  ],
									"source" : [ "obj-5", 0 ]
								}

							}
, 							{
								"patchline" : 								{
									"destination" : [ "obj-5", 0 ],
									"hidden" : 0,
									"midpoints" : [  ],
									"source" : [ "obj-6", 0 ]
								}

							}
, 							{
								"patchline" : 								{
									"destination" : [ "obj-8", 0 ],
									"hidden" : 0,
									"midpoints" : [  ],
									"source" : [ "obj-7", 0 ]
								}

							}
, 							{
								"patchline" : 								{
									"destination" : [ "obj-6", 0 ],
									"hidden" : 0,
									"midpoints" : [  ],
									"source" : [ "obj-8", 0 ]
								}

							}
 ]
					}
,
					"patching_rect" : [ 120.0, 180.0, 34.0, 27.0 ],
					"saved_object_attributes" : 					{
						"default_fontface" : 0,
						"globalpatchername" : "",
						"default_fontname" : "Arial",
						"fontface" : 0,
						"fontsize" : 12.0,
						"default_fontsize" : 12.0,
						"fontname" : "Arial"
					}
,
					"text" : "p HFC"
				}

			}
, 			{
				"box" : 				{
					"#init" : "",
					"#loadbang" : 0,
					"#triggerall" : 0,
					"#untuple" : 0,
					"fontname" : "Geneva",
					"fontsize" : 9.0,
					"ftm_scope" : 0,
					"id" : "obj-34",
					"maxclass" : "ftm.mess",
					"numinlets" : 2,
					"numoutlets" : 1,
					"outlettype" : [ "" ],
					"patching_rect" : [ 310.0, 150.0, 82.0, 17.0 ],
					"presentation_rect" : [ 310.0, 150.0, 82.0, 16.001465 ],
					"text" : [ "_($1 / $winsize)" ]
				}

			}
, 			{
				"box" : 				{
					"fontname" : "Arial",
					"fontsize" : 9.0,
					"id" : "obj-35",
					"maxclass" : "newobj",
					"numinlets" : 1,
					"numoutlets" : 1,
					"outlettype" : [ "" ],
					"patcher" : 					{
						"fileversion" : 1,
						"rect" : [ 171.0, 473.0, 363.0, 311.0 ],
						"bglocked" : 0,
						"defrect" : [ 171.0, 473.0, 363.0, 311.0 ],
						"openrect" : [ 0.0, 0.0, 0.0, 0.0 ],
						"openinpresentation" : 0,
						"default_fontsize" : 12.0,
						"default_fontface" : 0,
						"default_fontname" : "Arial",
						"gridonopen" : 0,
						"gridsize" : [ 10.0, 10.0 ],
						"gridsnaponopen" : 0,
						"toolbarvisible" : 1,
						"boxanimatetime" : 200,
						"imprint" : 0,
						"enablehscroll" : 1,
						"enablevscroll" : 1,
						"devicewidth" : 0.0,
						"boxes" : [ 							{
								"box" : 								{
									"comment" : "",
									"id" : "obj-1",
									"maxclass" : "outlet",
									"numinlets" : 1,
									"numoutlets" : 0,
									"patching_rect" : [ 54.0, 228.0, 15.0, 15.0 ]
								}

							}
, 							{
								"box" : 								{
									"comment" : "",
									"id" : "obj-2",
									"maxclass" : "inlet",
									"numinlets" : 0,
									"numoutlets" : 1,
									"outlettype" : [ "" ],
									"patching_rect" : [ 54.0, 33.0, 15.0, 15.0 ]
								}

							}
, 							{
								"box" : 								{
									"#init" : "",
									"#loadbang" : 0,
									"#triggerall" : 0,
									"#untuple" : 0,
									"fontname" : "Geneva",
									"fontsize" : 9.0,
									"ftm_scope" : 0,
									"id" : "obj-3",
									"maxclass" : "ftm.mess",
									"numinlets" : 2,
									"numoutlets" : 1,
									"outlettype" : [ "" ],
									"patching_rect" : [ 54.0, 167.0, 91.820801, 17.0 ],
									"presentation_rect" : [ 54.0, 167.0, 91.820801, 17.0 ],
									"text" : [ "_(($1 * $sr) / $nfft)" ]
								}

							}
 ],
						"lines" : [ 							{
								"patchline" : 								{
									"destination" : [ "obj-3", 0 ],
									"hidden" : 0,
									"midpoints" : [  ],
									"source" : [ "obj-2", 0 ]
								}

							}
, 							{
								"patchline" : 								{
									"destination" : [ "obj-1", 0 ],
									"hidden" : 0,
									"midpoints" : [  ],
									"source" : [ "obj-3", 0 ]
								}

							}
 ]
					}
,
					"patching_rect" : [ 60.0, 340.0, 55.0, 17.0 ],
					"saved_object_attributes" : 					{
						"default_fontface" : 0,
						"globalpatchername" : "",
						"default_fontname" : "Arial",
						"fontface" : 0,
						"fontsize" : 12.0,
						"default_fontsize" : 12.0,
						"fontname" : "Arial"
					}
,
					"text" : "p bin2freq"
				}

			}
, 			{
				"box" : 				{
					"fontname" : "Arial",
					"fontsize" : 9.0,
					"id" : "obj-36",
					"maxclass" : "newobj",
					"numinlets" : 1,
					"numoutlets" : 1,
					"outlettype" : [ "" ],
					"patcher" : 					{
						"fileversion" : 1,
						"rect" : [ 25.0, 69.0, 322.0, 239.0 ],
						"bglocked" : 0,
						"defrect" : [ 25.0, 69.0, 322.0, 239.0 ],
						"openrect" : [ 0.0, 0.0, 0.0, 0.0 ],
						"openinpresentation" : 0,
						"default_fontsize" : 12.0,
						"default_fontface" : 0,
						"default_fontname" : "Arial",
						"gridonopen" : 0,
						"gridsize" : [ 10.0, 10.0 ],
						"gridsnaponopen" : 0,
						"toolbarvisible" : 1,
						"boxanimatetime" : 200,
						"imprint" : 0,
						"enablehscroll" : 1,
						"enablevscroll" : 1,
						"devicewidth" : 0.0,
						"boxes" : [ 							{
								"box" : 								{
									"comment" : "",
									"id" : "obj-2",
									"maxclass" : "outlet",
									"numinlets" : 1,
									"numoutlets" : 0,
									"patching_rect" : [ 20.0, 119.0, 15.0, 15.0 ]
								}

							}
, 							{
								"box" : 								{
									"comment" : "",
									"id" : "obj-3",
									"maxclass" : "inlet",
									"numinlets" : 0,
									"numoutlets" : 1,
									"outlettype" : [ "int" ],
									"patching_rect" : [ 20.0, 22.0, 15.0, 15.0 ]
								}

							}
, 							{
								"box" : 								{
									"#init" : "0 1024",
									"#loadbang" : 0,
									"#triggerall" : 0,
									"#untuple" : 0,
									"fontname" : "Geneva",
									"fontsize" : 9.0,
									"ftm_scope" : 0,
									"id" : "obj-4",
									"maxclass" : "ftm.mess",
									"numinlets" : 2,
									"numoutlets" : 1,
									"outlettype" : [ "" ],
									"patching_rect" : [ 20.0, 70.0, 163.688965, 17.0 ],
									"presentation_rect" : [ 20.0, 70.0, 163.688965, 17.0 ],
									"text" : [ "_(ceil (($nfft * $1) / $FTM.audio.sr))" ]
								}

							}
 ],
						"lines" : [ 							{
								"patchline" : 								{
									"destination" : [ "obj-4", 0 ],
									"hidden" : 0,
									"midpoints" : [  ],
									"source" : [ "obj-3", 0 ]
								}

							}
, 							{
								"patchline" : 								{
									"destination" : [ "obj-2", 0 ],
									"hidden" : 0,
									"midpoints" : [  ],
									"source" : [ "obj-4", 0 ]
								}

							}
 ]
					}
,
					"patching_rect" : [ 140.0, 290.0, 76.0, 17.0 ],
					"saved_object_attributes" : 					{
						"default_fontface" : 0,
						"globalpatchername" : "",
						"default_fontname" : "Arial",
						"fontface" : 0,
						"fontsize" : 12.0,
						"default_fontsize" : 12.0,
						"fontname" : "Arial"
					}
,
					"text" : "p catart.freq2bin"
				}

			}
, 			{
				"box" : 				{
					"fontname" : "Arial",
					"fontsize" : 9.0,
					"frgb" : [ 0.0, 0.0, 0.0, 1.0 ],
					"id" : "obj-37",
					"maxclass" : "comment",
					"numinlets" : 1,
					"numoutlets" : 0,
					"patching_rect" : [ 80.0, 380.0, 57.0, 17.0 ],
					"text" : "f sup (bins)"
				}

			}
, 			{
				"box" : 				{
					"bgcolor" : [ 0.866667, 0.866667, 0.866667, 1.0 ],
					"fontname" : "Arial",
					"fontsize" : 9.0,
					"htextcolor" : [ 0.870588, 0.870588, 0.870588, 1.0 ],
					"id" : "obj-38",
					"maxclass" : "number",
					"numinlets" : 1,
					"numoutlets" : 2,
					"outlettype" : [ "int", "bang" ],
					"patching_rect" : [ 80.0, 400.0, 58.0, 17.0 ],
					"triscale" : 0.9
				}

			}
, 			{
				"box" : 				{
					"bgcolor" : [ 0.866667, 0.866667, 0.866667, 1.0 ],
					"fontname" : "Arial",
					"fontsize" : 9.0,
					"htextcolor" : [ 0.870588, 0.870588, 0.870588, 1.0 ],
					"id" : "obj-39",
					"maxclass" : "number",
					"numinlets" : 1,
					"numoutlets" : 2,
					"outlettype" : [ "int", "bang" ],
					"patching_rect" : [ 20.0, 400.0, 46.0, 17.0 ],
					"triscale" : 0.9
				}

			}
, 			{
				"box" : 				{
					"fontname" : "Arial",
					"fontsize" : 9.0,
					"frgb" : [ 0.0, 0.0, 0.0, 1.0 ],
					"id" : "obj-40",
					"maxclass" : "comment",
					"numinlets" : 1,
					"numoutlets" : 0,
					"patching_rect" : [ 20.0, 380.0, 53.0, 17.0 ],
					"text" : "f inf (bins)"
				}

			}
, 			{
				"box" : 				{
					"fontname" : "Arial",
					"fontsize" : 9.0,
					"frgb" : [ 0.0, 0.0, 0.0, 1.0 ],
					"id" : "obj-42",
					"maxclass" : "comment",
					"numinlets" : 1,
					"numoutlets" : 0,
					"patching_rect" : [ 220.0, 255.0, 50.0, 17.0 ],
					"text" : "f sup (Hz)"
				}

			}
, 			{
				"box" : 				{
					"bgcolor" : [ 0.866667, 0.866667, 0.866667, 1.0 ],
					"fontname" : "Arial",
					"fontsize" : 9.0,
					"htextcolor" : [ 0.870588, 0.870588, 0.870588, 1.0 ],
					"id" : "obj-43",
					"maxclass" : "number",
					"numinlets" : 1,
					"numoutlets" : 2,
					"outlettype" : [ "int", "bang" ],
					"patching_rect" : [ 220.0, 270.0, 58.0, 17.0 ],
					"triscale" : 0.9
				}

			}
, 			{
				"box" : 				{
					"bgcolor" : [ 0.866667, 0.866667, 0.866667, 1.0 ],
					"fontname" : "Arial",
					"fontsize" : 9.0,
					"htextcolor" : [ 0.870588, 0.870588, 0.870588, 1.0 ],
					"id" : "obj-44",
					"maxclass" : "number",
					"numinlets" : 1,
					"numoutlets" : 2,
					"outlettype" : [ "int", "bang" ],
					"patching_rect" : [ 140.0, 270.0, 46.0, 17.0 ],
					"triscale" : 0.9
				}

			}
, 			{
				"box" : 				{
					"fontname" : "Arial",
					"fontsize" : 9.0,
					"frgb" : [ 0.0, 0.0, 0.0, 1.0 ],
					"id" : "obj-45",
					"maxclass" : "comment",
					"numinlets" : 1,
					"numoutlets" : 0,
					"patching_rect" : [ 140.0, 255.0, 46.0, 17.0 ],
					"text" : "f inf (Hz)"
				}

			}
, 			{
				"box" : 				{
					"color" : [ 1.0, 0.360784, 0.682353, 1.0 ],
					"fontname" : "Arial",
					"fontsize" : 9.0,
					"id" : "obj-46",
					"maxclass" : "newobj",
					"numinlets" : 3,
					"numoutlets" : 1,
					"outlettype" : [ "" ],
					"patcher" : 					{
						"fileversion" : 1,
						"rect" : [ 41.0, 60.0, 474.0, 321.0 ],
						"bglocked" : 0,
						"defrect" : [ 41.0, 60.0, 474.0, 321.0 ],
						"openrect" : [ 0.0, 0.0, 0.0, 0.0 ],
						"openinpresentation" : 0,
						"default_fontsize" : 12.0,
						"default_fontface" : 0,
						"default_fontname" : "Arial",
						"gridonopen" : 0,
						"gridsize" : [ 10.0, 10.0 ],
						"gridsnaponopen" : 0,
						"toolbarvisible" : 1,
						"boxanimatetime" : 200,
						"imprint" : 0,
						"enablehscroll" : 1,
						"enablevscroll" : 1,
						"devicewidth" : 0.0,
						"boxes" : [ 							{
								"box" : 								{
									"#init" : "",
									"#loadbang" : 0,
									"#triggerall" : 0,
									"#untuple" : 0,
									"fontname" : "Geneva",
									"fontsize" : 9.0,
									"ftm_scope" : 0,
									"id" : "obj-1",
									"maxclass" : "ftm.mess",
									"numinlets" : 2,
									"numoutlets" : 1,
									"outlettype" : [ "" ],
									"patching_rect" : [ 60.0, 197.0, 368.157715, 17.0 ],
									"presentation_rect" : [ 60.0, 197.0, 368.157715, 17.0 ],
									"text" : [ "_(print 1 $1 2 $2 pow ($1 prod) (1. / $2)   ($1geomean) / (($1 sum) + $epsilon))" ]
								}

							}
, 							{
								"box" : 								{
									"comment" : "",
									"id" : "obj-2",
									"maxclass" : "outlet",
									"numinlets" : 1,
									"numoutlets" : 0,
									"patching_rect" : [ 25.0, 203.0, 15.0, 15.0 ]
								}

							}
, 							{
								"box" : 								{
									"comment" : "",
									"id" : "obj-3",
									"maxclass" : "inlet",
									"numinlets" : 0,
									"numoutlets" : 1,
									"outlettype" : [ "int" ],
									"patching_rect" : [ 224.0, 46.0, 15.0, 15.0 ]
								}

							}
, 							{
								"box" : 								{
									"comment" : "",
									"id" : "obj-4",
									"maxclass" : "inlet",
									"numinlets" : 0,
									"numoutlets" : 1,
									"outlettype" : [ "int" ],
									"patching_rect" : [ 94.0, 46.0, 15.0, 15.0 ]
								}

							}
, 							{
								"box" : 								{
									"fontname" : "Arial",
									"fontsize" : 9.0,
									"frgb" : [ 0.0, 0.0, 0.0, 1.0 ],
									"id" : "obj-5",
									"maxclass" : "comment",
									"numinlets" : 1,
									"numoutlets" : 0,
									"patching_rect" : [ 223.0, 31.0, 48.0, 17.0 ],
									"text" : "k2 = sup"
								}

							}
, 							{
								"box" : 								{
									"comment" : "",
									"id" : "obj-6",
									"maxclass" : "inlet",
									"numinlets" : 0,
									"numoutlets" : 1,
									"outlettype" : [ "" ],
									"patching_rect" : [ 25.0, 46.0, 15.0, 15.0 ]
								}

							}
, 							{
								"box" : 								{
									"fontname" : "Arial",
									"fontsize" : 9.0,
									"frgb" : [ 0.0, 0.0, 0.0, 1.0 ],
									"id" : "obj-7",
									"maxclass" : "comment",
									"numinlets" : 1,
									"numoutlets" : 0,
									"patching_rect" : [ 91.0, 31.0, 45.0, 17.0 ],
									"text" : "k1 = inf"
								}

							}
, 							{
								"box" : 								{
									"fontname" : "Arial",
									"fontsize" : 9.0,
									"frgb" : [ 0.0, 0.0, 0.0, 1.0 ],
									"id" : "obj-8",
									"maxclass" : "comment",
									"numinlets" : 1,
									"numoutlets" : 0,
									"patching_rect" : [ 20.0, 32.0, 52.0, 17.0 ],
									"text" : "fft frame"
								}

							}
, 							{
								"box" : 								{
									"fontname" : "Arial",
									"fontsize" : 9.0,
									"frgb" : [ 0.0, 0.0, 0.0, 1.0 ],
									"id" : "obj-9",
									"maxclass" : "comment",
									"numinlets" : 1,
									"numoutlets" : 0,
									"patching_rect" : [ 26.0, 241.0, 370.0, 17.0 ],
									"text" : "flatness = (prod_{k=k1}^{k2} | X_k | ) ^ (1 / N) / sum_{k=k1}^{k2} | X_k |"
								}

							}
, 							{
								"box" : 								{
									"#init" : "",
									"#loadbang" : 0,
									"#triggerall" : 1,
									"#untuple" : 0,
									"fontname" : "Geneva",
									"fontsize" : 9.0,
									"ftm_scope" : 0,
									"id" : "obj-10",
									"maxclass" : "ftm.mess",
									"numinlets" : 2,
									"numoutlets" : 1,
									"outlettype" : [ "" ],
									"patching_rect" : [ 163.0, 88.0, 65.449219, 17.0 ],
									"presentation_rect" : [ 163.0, 88.0, 65.449219, 17.0 ],
									"text" : [ "_($2 - $1 + 1)" ]
								}

							}
, 							{
								"box" : 								{
									"#init" : "",
									"#loadbang" : 0,
									"#triggerall" : 0,
									"#untuple" : 0,
									"fontname" : "Geneva",
									"fontsize" : 9.0,
									"ftm_scope" : 0,
									"id" : "obj-11",
									"maxclass" : "ftm.mess",
									"numinlets" : 2,
									"numoutlets" : 1,
									"outlettype" : [ "" ],
									"patching_rect" : [ 25.0, 165.0, 184.589355, 17.0 ],
									"presentation_rect" : [ 25.0, 165.0, 184.589355, 17.0 ],
									"text" : [ "_(($1 geomean) / (($1 sum) + $epsilon))" ]
								}

							}
, 							{
								"box" : 								{
									"#init" : "",
									"#loadbang" : 0,
									"#triggerall" : 0,
									"#untuple" : 0,
									"fontname" : "Geneva",
									"fontsize" : 9.0,
									"ftm_scope" : 0,
									"id" : "obj-12",
									"maxclass" : "ftm.mess",
									"numinlets" : 3,
									"numins" : 3,
									"numoutlets" : 1,
									"outlettype" : [ "" ],
									"patching_rect" : [ 25.0, 126.0, 92.682129, 17.0 ],
									"presentation_rect" : [ 25.0, 126.0, 92.682129, 17.0 ],
									"text" : [ "_($1 colref 0 $2 $3)" ]
								}

							}
 ],
						"lines" : [ 							{
								"patchline" : 								{
									"destination" : [ "obj-1", 1 ],
									"hidden" : 0,
									"midpoints" : [  ],
									"source" : [ "obj-10", 0 ]
								}

							}
, 							{
								"patchline" : 								{
									"destination" : [ "obj-11", 1 ],
									"hidden" : 0,
									"midpoints" : [  ],
									"source" : [ "obj-10", 0 ]
								}

							}
, 							{
								"patchline" : 								{
									"destination" : [ "obj-12", 2 ],
									"hidden" : 0,
									"midpoints" : [  ],
									"source" : [ "obj-10", 0 ]
								}

							}
, 							{
								"patchline" : 								{
									"destination" : [ "obj-2", 0 ],
									"hidden" : 0,
									"midpoints" : [  ],
									"source" : [ "obj-11", 0 ]
								}

							}
, 							{
								"patchline" : 								{
									"destination" : [ "obj-11", 0 ],
									"hidden" : 0,
									"midpoints" : [  ],
									"source" : [ "obj-12", 0 ]
								}

							}
, 							{
								"patchline" : 								{
									"destination" : [ "obj-10", 1 ],
									"hidden" : 0,
									"midpoints" : [  ],
									"source" : [ "obj-3", 0 ]
								}

							}
, 							{
								"patchline" : 								{
									"destination" : [ "obj-10", 0 ],
									"hidden" : 0,
									"midpoints" : [  ],
									"source" : [ "obj-4", 0 ]
								}

							}
, 							{
								"patchline" : 								{
									"destination" : [ "obj-12", 1 ],
									"hidden" : 0,
									"midpoints" : [  ],
									"source" : [ "obj-4", 0 ]
								}

							}
, 							{
								"patchline" : 								{
									"destination" : [ "obj-12", 0 ],
									"hidden" : 0,
									"midpoints" : [  ],
									"source" : [ "obj-6", 0 ]
								}

							}
 ]
					}
,
					"patching_rect" : [ 0.0, 430.0, 125.0, 17.0 ],
					"saved_object_attributes" : 					{
						"default_fontface" : 0,
						"globalpatchername" : "",
						"default_fontname" : "Arial",
						"fontface" : 0,
						"fontsize" : 12.0,
						"default_fontsize" : 12.0,
						"fontname" : "Arial"
					}
,
					"text" : "p flatness"
				}

			}
, 			{
				"box" : 				{
					"bubblesize" : 8,
					"id" : "obj-47",
					"margin" : 4,
					"maxclass" : "preset",
					"numinlets" : 1,
					"numoutlets" : 4,
					"outlettype" : [ "preset", "int", "preset", "int" ],
					"patching_rect" : [ 392.0, 257.0, 47.0, 27.0 ],
					"preset_data" : [ 						{
							"number" : 1,
							"data" : [ 5, "obj-44", "number", "int", 1, 5, "obj-43", "number", "int", 22050, 5, "obj-39", "number", "int", 1, 5, "obj-38", "number", "int", 22050 ]
						}
, 						{
							"number" : 2,
							"data" : [ 5, "obj-44", "number", "int", 50, 5, "obj-43", "number", "int", 3000, 5, "obj-39", "number", "int", 35, 5, "obj-38", "number", "int", 200 ]
						}
 ],
					"spacing" : 2
				}

			}
, 			{
				"box" : 				{
					"color" : [ 1.0, 0.360784, 0.682353, 1.0 ],
					"fontname" : "Arial",
					"fontsize" : 9.0,
					"id" : "obj-48",
					"maxclass" : "newobj",
					"numinlets" : 3,
					"numoutlets" : 1,
					"outlettype" : [ "" ],
					"patcher" : 					{
						"fileversion" : 1,
						"rect" : [ 477.0, 374.0, 583.0, 453.0 ],
						"bglocked" : 0,
						"defrect" : [ 477.0, 374.0, 583.0, 453.0 ],
						"openrect" : [ 0.0, 0.0, 0.0, 0.0 ],
						"openinpresentation" : 0,
						"default_fontsize" : 12.0,
						"default_fontface" : 0,
						"default_fontname" : "Arial",
						"gridonopen" : 0,
						"gridsize" : [ 10.0, 10.0 ],
						"gridsnaponopen" : 0,
						"toolbarvisible" : 1,
						"boxanimatetime" : 200,
						"imprint" : 0,
						"enablehscroll" : 1,
						"enablevscroll" : 1,
						"devicewidth" : 0.0,
						"boxes" : [ 							{
								"box" : 								{
									"#init" : "",
									"#loadbang" : 0,
									"#triggerall" : 0,
									"#untuple" : 0,
									"fontname" : "Geneva",
									"fontsize" : 9.0,
									"ftm_scope" : 0,
									"id" : "obj-1",
									"linecount" : 2,
									"maxclass" : "ftm.mess",
									"numinlets" : 2,
									"numoutlets" : 1,
									"outlettype" : [ "" ],
									"patching_rect" : [ 105.0, 290.0, 183.0, 29.0 ],
									"presentation_linecount" : 2,
									"presentation_rect" : [ 105.0, 290.0, 183.0, 29.0 ],
									"text" : [ "_(print num $1 denom $2 centroid", "_ bin ($1 / $2) freq (($1 * $sr) / $nfft));" ]
								}

							}
, 							{
								"box" : 								{
									"#init" : "",
									"#loadbang" : 0,
									"#triggerall" : 0,
									"#untuple" : 0,
									"fontname" : "Geneva",
									"fontsize" : 9.0,
									"ftm_scope" : 0,
									"id" : "obj-2",
									"maxclass" : "ftm.mess",
									"numinlets" : 2,
									"numoutlets" : 1,
									"outlettype" : [ "" ],
									"patching_rect" : [ 195.0, 81.0, 129.046875, 17.0 ],
									"presentation_rect" : [ 195.0, 81.0, 129.046875, 17.0 ],
									"text" : [ "_(print centroid limits $1 $2)" ]
								}

							}
, 							{
								"box" : 								{
									"fontname" : "Arial",
									"fontsize" : 9.0,
									"frgb" : [ 0.0, 0.0, 0.0, 1.0 ],
									"id" : "obj-3",
									"maxclass" : "comment",
									"numinlets" : 1,
									"numoutlets" : 0,
									"patching_rect" : [ 92.0, 234.0, 44.0, 17.0 ],
									"text" : "num."
								}

							}
, 							{
								"box" : 								{
									"#init" : "",
									"#loadbang" : 0,
									"#triggerall" : 0,
									"#untuple" : 0,
									"fontname" : "Geneva",
									"fontsize" : 9.0,
									"ftm_scope" : 0,
									"id" : "obj-4",
									"maxclass" : "ftm.mess",
									"numinlets" : 2,
									"numoutlets" : 1,
									"outlettype" : [ "" ],
									"patching_rect" : [ 79.0, 263.0, 48.881836, 17.0 ],
									"presentation_rect" : [ 79.0, 263.0, 48.881836, 17.0 ],
									"text" : [ "_($1 / $2)" ]
								}

							}
, 							{
								"box" : 								{
									"#init" : "",
									"#loadbang" : 0,
									"#triggerall" : 0,
									"#untuple" : 0,
									"fontname" : "Geneva",
									"fontsize" : 9.0,
									"ftm_scope" : 0,
									"id" : "obj-5",
									"maxclass" : "ftm.mess",
									"numinlets" : 2,
									"numoutlets" : 1,
									"outlettype" : [ "" ],
									"patching_rect" : [ 79.0, 213.0, 46.921875, 17.0 ],
									"presentation_rect" : [ 79.0, 213.0, 46.921875, 17.0 ],
									"text" : [ "_($1 sum)" ]
								}

							}
, 							{
								"box" : 								{
									"#init" : "",
									"#loadbang" : 0,
									"#triggerall" : 0,
									"#untuple" : 0,
									"fontname" : "Geneva",
									"fontsize" : 9.0,
									"ftm_scope" : 0,
									"id" : "obj-6",
									"maxclass" : "ftm.mess",
									"numinlets" : 2,
									"numoutlets" : 1,
									"outlettype" : [ "" ],
									"patching_rect" : [ 79.0, 187.0, 59.450684, 17.0 ],
									"presentation_rect" : [ 79.0, 187.0, 59.450684, 17.0 ],
									"text" : [ "_($1 mul $2)" ]
								}

							}
, 							{
								"box" : 								{
									"fontname" : "Arial",
									"fontsize" : 9.0,
									"frgb" : [ 0.0, 0.0, 0.0, 1.0 ],
									"id" : "obj-7",
									"maxclass" : "comment",
									"numinlets" : 1,
									"numoutlets" : 0,
									"patching_rect" : [ 303.0, 114.0, 100.0, 17.0 ],
									"text" : "fft bin values"
								}

							}
, 							{
								"box" : 								{
									"fontname" : "Arial",
									"fontsize" : 9.0,
									"id" : "obj-8",
									"maxclass" : "newobj",
									"numinlets" : 1,
									"numoutlets" : 2,
									"outlettype" : [ "bang", "" ],
									"patching_rect" : [ 79.0, 92.0, 27.0, 17.0 ],
									"text" : "t b l"
								}

							}
, 							{
								"box" : 								{
									"#init" : "",
									"#loadbang" : 0,
									"#triggerall" : 0,
									"#untuple" : 0,
									"fontname" : "Geneva",
									"fontsize" : 9.0,
									"ftm_scope" : 0,
									"id" : "obj-9",
									"maxclass" : "ftm.mess",
									"numinlets" : 2,
									"numoutlets" : 1,
									"outlettype" : [ "" ],
									"patching_rect" : [ 284.0, 195.0, 103.07959, 17.0 ],
									"presentation_rect" : [ 284.0, 195.0, 103.07959, 17.0 ],
									"text" : [ "_(($1 sum) + $epsilon)" ]
								}

							}
, 							{
								"box" : 								{
									"id" : "obj-10",
									"maxclass" : "fpic",
									"numinlets" : 1,
									"numoutlets" : 0,
									"patching_rect" : [ 312.0, 291.0, 246.0, 71.0 ],
									"pic" : "centroid.png"
								}

							}
, 							{
								"box" : 								{
									"fontname" : "Arial",
									"fontsize" : 9.0,
									"id" : "obj-11",
									"maxclass" : "newobj",
									"numinlets" : 2,
									"numoutlets" : 1,
									"outlettype" : [ "" ],
									"patching_rect" : [ 284.0, 150.0, 73.0, 17.0 ],
									"saved_object_attributes" : 									{
										"ftm_scope" : 0
									}
,
									"text" : "ftm.copy fmat"
								}

							}
, 							{
								"box" : 								{
									"comment" : "",
									"id" : "obj-12",
									"maxclass" : "outlet",
									"numinlets" : 1,
									"numoutlets" : 0,
									"patching_rect" : [ 79.0, 302.0, 15.0, 15.0 ]
								}

							}
, 							{
								"box" : 								{
									"comment" : "",
									"id" : "obj-13",
									"maxclass" : "inlet",
									"numinlets" : 0,
									"numoutlets" : 1,
									"outlettype" : [ "" ],
									"patching_rect" : [ 264.0, 39.0, 15.0, 15.0 ]
								}

							}
, 							{
								"box" : 								{
									"comment" : "",
									"id" : "obj-14",
									"maxclass" : "inlet",
									"numinlets" : 0,
									"numoutlets" : 1,
									"outlettype" : [ "" ],
									"patching_rect" : [ 175.0, 39.0, 15.0, 15.0 ]
								}

							}
, 							{
								"box" : 								{
									"fontname" : "Arial",
									"fontsize" : 9.0,
									"frgb" : [ 0.0, 0.0, 0.0, 1.0 ],
									"id" : "obj-15",
									"maxclass" : "comment",
									"numinlets" : 1,
									"numoutlets" : 0,
									"patching_rect" : [ 263.0, 25.0, 25.0, 17.0 ],
									"text" : "sup"
								}

							}
, 							{
								"box" : 								{
									"comment" : "",
									"id" : "obj-16",
									"maxclass" : "inlet",
									"numinlets" : 0,
									"numoutlets" : 1,
									"outlettype" : [ "" ],
									"patching_rect" : [ 18.0, 39.0, 15.0, 15.0 ]
								}

							}
, 							{
								"box" : 								{
									"fontname" : "Arial",
									"fontsize" : 9.0,
									"frgb" : [ 0.0, 0.0, 0.0, 1.0 ],
									"id" : "obj-17",
									"maxclass" : "comment",
									"numinlets" : 1,
									"numoutlets" : 0,
									"patching_rect" : [ 172.0, 25.0, 25.0, 17.0 ],
									"text" : "inf"
								}

							}
, 							{
								"box" : 								{
									"fontname" : "Arial",
									"fontsize" : 9.0,
									"frgb" : [ 0.0, 0.0, 0.0, 1.0 ],
									"id" : "obj-18",
									"maxclass" : "comment",
									"numinlets" : 1,
									"numoutlets" : 0,
									"patching_rect" : [ 13.0, 25.0, 100.0, 17.0 ],
									"text" : "fft frame"
								}

							}
, 							{
								"box" : 								{
									"fontname" : "Arial",
									"fontsize" : 9.0,
									"frgb" : [ 0.0, 0.0, 0.0, 1.0 ],
									"id" : "obj-19",
									"maxclass" : "comment",
									"numinlets" : 1,
									"numoutlets" : 0,
									"patching_rect" : [ 316.0, 268.0, 100.0, 17.0 ],
									"text" : "Spectral centroid"
								}

							}
, 							{
								"box" : 								{
									"fontname" : "Arial",
									"fontsize" : 9.0,
									"frgb" : [ 0.0, 0.0, 0.0, 1.0 ],
									"id" : "obj-20",
									"maxclass" : "comment",
									"numinlets" : 1,
									"numoutlets" : 0,
									"patching_rect" : [ 9.0, 115.0, 73.0, 17.0 ],
									"text" : "fft bin indices"
								}

							}
, 							{
								"box" : 								{
									"fontname" : "Arial",
									"fontsize" : 9.0,
									"frgb" : [ 0.0, 0.0, 0.0, 1.0 ],
									"id" : "obj-21",
									"maxclass" : "comment",
									"numinlets" : 1,
									"numoutlets" : 0,
									"patching_rect" : [ 283.0, 219.0, 44.0, 17.0 ],
									"text" : "denom."
								}

							}
, 							{
								"box" : 								{
									"fontname" : "Arial",
									"fontsize" : 9.0,
									"id" : "obj-22",
									"maxclass" : "newobj",
									"numinlets" : 2,
									"numoutlets" : 1,
									"outlettype" : [ "" ],
									"patching_rect" : [ 79.0, 150.0, 73.0, 17.0 ],
									"saved_object_attributes" : 									{
										"ftm_scope" : 0
									}
,
									"text" : "ftm.copy fmat"
								}

							}
, 							{
								"box" : 								{
									"#init" : "",
									"#loadbang" : 0,
									"#triggerall" : 0,
									"#untuple" : 0,
									"fontname" : "Geneva",
									"fontsize" : 9.0,
									"ftm_scope" : 0,
									"id" : "obj-23",
									"maxclass" : "ftm.mess",
									"numinlets" : 3,
									"numins" : 3,
									"numoutlets" : 1,
									"outlettype" : [ "" ],
									"patching_rect" : [ 284.0, 129.0, 140.134277, 17.0 ],
									"presentation_rect" : [ 284.0, 129.0, 140.134277, 17.0 ],
									"text" : [ "_($1 colref 0 $2 ($3 - $2 + 1))" ]
								}

							}
, 							{
								"box" : 								{
									"#init" : "",
									"#loadbang" : 0,
									"#triggerall" : 0,
									"#untuple" : 0,
									"fontname" : "Geneva",
									"fontsize" : 9.0,
									"ftm_scope" : 0,
									"id" : "obj-24",
									"maxclass" : "ftm.mess",
									"numinlets" : 3,
									"numins" : 3,
									"numoutlets" : 1,
									"outlettype" : [ "" ],
									"patching_rect" : [ 79.0, 129.0, 156.055664, 17.0 ],
									"presentation_rect" : [ 79.0, 129.0, 156.055664, 17.0 ],
									"text" : [ "_($ramp colref 0 $2 ($3 - $2 + 1))" ]
								}

							}
 ],
						"lines" : [ 							{
								"patchline" : 								{
									"destination" : [ "obj-6", 1 ],
									"hidden" : 0,
									"midpoints" : [  ],
									"source" : [ "obj-11", 0 ]
								}

							}
, 							{
								"patchline" : 								{
									"destination" : [ "obj-9", 0 ],
									"hidden" : 0,
									"midpoints" : [  ],
									"source" : [ "obj-11", 0 ]
								}

							}
, 							{
								"patchline" : 								{
									"destination" : [ "obj-23", 2 ],
									"hidden" : 0,
									"midpoints" : [  ],
									"source" : [ "obj-13", 0 ]
								}

							}
, 							{
								"patchline" : 								{
									"destination" : [ "obj-24", 2 ],
									"hidden" : 0,
									"midpoints" : [  ],
									"source" : [ "obj-13", 0 ]
								}

							}
, 							{
								"patchline" : 								{
									"destination" : [ "obj-23", 1 ],
									"hidden" : 0,
									"midpoints" : [  ],
									"source" : [ "obj-14", 0 ]
								}

							}
, 							{
								"patchline" : 								{
									"destination" : [ "obj-24", 1 ],
									"hidden" : 0,
									"midpoints" : [  ],
									"source" : [ "obj-14", 0 ]
								}

							}
, 							{
								"patchline" : 								{
									"destination" : [ "obj-8", 0 ],
									"hidden" : 0,
									"midpoints" : [  ],
									"source" : [ "obj-16", 0 ]
								}

							}
, 							{
								"patchline" : 								{
									"destination" : [ "obj-6", 0 ],
									"hidden" : 0,
									"midpoints" : [  ],
									"source" : [ "obj-22", 0 ]
								}

							}
, 							{
								"patchline" : 								{
									"destination" : [ "obj-11", 0 ],
									"hidden" : 0,
									"midpoints" : [  ],
									"source" : [ "obj-23", 0 ]
								}

							}
, 							{
								"patchline" : 								{
									"destination" : [ "obj-22", 0 ],
									"hidden" : 0,
									"midpoints" : [  ],
									"source" : [ "obj-24", 0 ]
								}

							}
, 							{
								"patchline" : 								{
									"destination" : [ "obj-12", 0 ],
									"hidden" : 0,
									"midpoints" : [  ],
									"source" : [ "obj-4", 0 ]
								}

							}
, 							{
								"patchline" : 								{
									"destination" : [ "obj-4", 0 ],
									"hidden" : 0,
									"midpoints" : [  ],
									"source" : [ "obj-5", 0 ]
								}

							}
, 							{
								"patchline" : 								{
									"destination" : [ "obj-5", 0 ],
									"hidden" : 0,
									"midpoints" : [  ],
									"source" : [ "obj-6", 0 ]
								}

							}
, 							{
								"patchline" : 								{
									"destination" : [ "obj-23", 0 ],
									"hidden" : 0,
									"midpoints" : [ 96.5, 111.0, 293.5, 111.0 ],
									"source" : [ "obj-8", 1 ]
								}

							}
, 							{
								"patchline" : 								{
									"destination" : [ "obj-24", 0 ],
									"hidden" : 0,
									"midpoints" : [  ],
									"source" : [ "obj-8", 0 ]
								}

							}
, 							{
								"patchline" : 								{
									"destination" : [ "obj-4", 1 ],
									"hidden" : 0,
									"midpoints" : [  ],
									"source" : [ "obj-9", 0 ]
								}

							}
 ]
					}
,
					"patching_rect" : [ 60.0, 320.0, 175.0, 17.0 ],
					"saved_object_attributes" : 					{
						"default_fontface" : 0,
						"globalpatchername" : "",
						"default_fontname" : "Arial",
						"fontface" : 0,
						"fontsize" : 12.0,
						"default_fontsize" : 12.0,
						"fontname" : "Arial"
					}
,
					"text" : "p centroid"
				}

			}
, 			{
				"box" : 				{
					"fontname" : "Arial",
					"fontsize" : 9.0,
					"id" : "obj-49",
					"maxclass" : "newobj",
					"numinlets" : 1,
					"numoutlets" : 3,
					"outlettype" : [ "", "", "" ],
					"patching_rect" : [ 0.0, 150.0, 132.0, 17.0 ],
					"text" : "t l l l"
				}

			}
, 			{
				"box" : 				{
					"color" : [ 1.0, 0.360784, 0.682353, 1.0 ],
					"fontname" : "Arial",
					"fontsize" : 9.0,
					"id" : "obj-50",
					"maxclass" : "newobj",
					"numinlets" : 2,
					"numoutlets" : 1,
					"outlettype" : [ "" ],
					"patcher" : 					{
						"fileversion" : 1,
						"rect" : [ 536.0, 248.0, 442.0, 477.0 ],
						"bglocked" : 0,
						"defrect" : [ 536.0, 248.0, 442.0, 477.0 ],
						"openrect" : [ 0.0, 0.0, 0.0, 0.0 ],
						"openinpresentation" : 0,
						"default_fontsize" : 12.0,
						"default_fontface" : 0,
						"default_fontname" : "Arial",
						"gridonopen" : 0,
						"gridsize" : [ 10.0, 10.0 ],
						"gridsnaponopen" : 0,
						"toolbarvisible" : 1,
						"boxanimatetime" : 200,
						"imprint" : 0,
						"enablehscroll" : 1,
						"enablevscroll" : 1,
						"devicewidth" : 0.0,
						"boxes" : [ 							{
								"box" : 								{
									"#init" : "",
									"#loadbang" : 0,
									"#triggerall" : 0,
									"#untuple" : 0,
									"fontname" : "Geneva",
									"fontsize" : 9.0,
									"ftm_scope" : 0,
									"id" : "obj-1",
									"maxclass" : "ftm.mess",
									"numinlets" : 2,
									"numoutlets" : 1,
									"outlettype" : [ "" ],
									"patching_rect" : [ 124.0, 190.0, 240.755859, 17.0 ],
									"presentation_rect" : [ 124.0, 190.0, 240.755859, 17.0 ],
									"text" : [ "_(($1 / ($winsize - 1)) / (($2 / $winsize) + $epsilon))" ]
								}

							}
, 							{
								"box" : 								{
									"fontname" : "Arial",
									"fontsize" : 9.0,
									"id" : "obj-2",
									"maxclass" : "newobj",
									"numinlets" : 1,
									"numoutlets" : 2,
									"outlettype" : [ "float", "bang" ],
									"patching_rect" : [ 308.0, 55.0, 49.0, 17.0 ],
									"text" : "t f b"
								}

							}
, 							{
								"box" : 								{
									"fontname" : "Arial",
									"fontsize" : 9.0,
									"id" : "obj-3",
									"maxclass" : "newobj",
									"numinlets" : 2,
									"numoutlets" : 1,
									"outlettype" : [ "int" ],
									"patching_rect" : [ 134.0, 153.0, 27.0, 17.0 ],
									"text" : "- 1"
								}

							}
, 							{
								"box" : 								{
									"#init" : "",
									"#loadbang" : 0,
									"#triggerall" : 0,
									"#untuple" : 0,
									"fontname" : "Geneva",
									"fontsize" : 9.0,
									"ftm_scope" : 0,
									"id" : "obj-4",
									"maxclass" : "ftm.mess",
									"numinlets" : 2,
									"numoutlets" : 1,
									"outlettype" : [ "" ],
									"patching_rect" : [ 347.0, 93.0, 51.285645, 17.0 ],
									"presentation_rect" : [ 347.0, 93.0, 51.285645, 17.0 ],
									"text" : [ "_($winsize)" ]
								}

							}
, 							{
								"box" : 								{
									"comment" : "",
									"id" : "obj-5",
									"maxclass" : "outlet",
									"numinlets" : 1,
									"numoutlets" : 0,
									"patching_rect" : [ 13.0, 298.0, 15.0, 15.0 ]
								}

							}
, 							{
								"box" : 								{
									"fontname" : "Arial",
									"fontsize" : 9.0,
									"id" : "obj-6",
									"maxclass" : "newobj",
									"numinlets" : 1,
									"numoutlets" : 2,
									"outlettype" : [ "float", "bang" ],
									"patching_rect" : [ 13.0, 196.0, 94.0, 17.0 ],
									"text" : "t f b"
								}

							}
, 							{
								"box" : 								{
									"fontname" : "Arial",
									"fontsize" : 9.0,
									"id" : "obj-7",
									"maxclass" : "newobj",
									"numinlets" : 2,
									"numoutlets" : 1,
									"outlettype" : [ "float" ],
									"patching_rect" : [ 308.0, 136.0, 49.0, 17.0 ],
									"text" : "/ 1024."
								}

							}
, 							{
								"box" : 								{
									"fontname" : "Arial",
									"fontsize" : 9.0,
									"id" : "obj-8",
									"maxclass" : "newobj",
									"numinlets" : 2,
									"numoutlets" : 1,
									"outlettype" : [ "float" ],
									"patching_rect" : [ 97.0, 227.0, 27.0, 17.0 ],
									"text" : "f"
								}

							}
, 							{
								"box" : 								{
									"fontname" : "Arial",
									"fontsize" : 9.0,
									"id" : "obj-9",
									"maxclass" : "newobj",
									"numinlets" : 2,
									"numoutlets" : 1,
									"outlettype" : [ "float" ],
									"patching_rect" : [ 13.0, 259.0, 33.0, 17.0 ],
									"text" : "/ 1."
								}

							}
, 							{
								"box" : 								{
									"comment" : "",
									"id" : "obj-10",
									"maxclass" : "inlet",
									"numinlets" : 0,
									"numoutlets" : 1,
									"outlettype" : [ "" ],
									"patching_rect" : [ 308.0, 25.0, 15.0, 15.0 ]
								}

							}
, 							{
								"box" : 								{
									"fontname" : "Arial",
									"fontsize" : 9.0,
									"id" : "obj-11",
									"maxclass" : "newobj",
									"numinlets" : 2,
									"numoutlets" : 1,
									"outlettype" : [ "float" ],
									"patching_rect" : [ 13.0, 173.0, 60.0, 17.0 ],
									"text" : "/ 1023."
								}

							}
, 							{
								"box" : 								{
									"#init" : "",
									"#loadbang" : 0,
									"#triggerall" : 0,
									"#untuple" : 0,
									"fontname" : "Geneva",
									"fontsize" : 9.0,
									"ftm_scope" : 0,
									"id" : "obj-12",
									"maxclass" : "ftm.mess",
									"numinlets" : 2,
									"numoutlets" : 1,
									"outlettype" : [ "" ],
									"patching_rect" : [ 13.0, 129.0, 136.240723, 17.0 ],
									"presentation_rect" : [ 13.0, 129.0, 136.240723, 17.0 ],
									"text" : [ "_(abs ($1 dot $input1_tau1 ))" ]
								}

							}
, 							{
								"box" : 								{
									"#init" : "",
									"#loadbang" : 0,
									"#triggerall" : 0,
									"#untuple" : 0,
									"fontname" : "Geneva",
									"fontsize" : 9.0,
									"ftm_scope" : 0,
									"id" : "obj-13",
									"maxclass" : "ftm.mess",
									"numinlets" : 2,
									"numoutlets" : 1,
									"outlettype" : [ "" ],
									"patching_rect" : [ 88.0, 105.0, 125.351074, 17.0 ],
									"presentation_rect" : [ 88.0, 105.0, 125.351074, 17.0 ],
									"text" : [ "_($input1_tau1 rotate 512)" ]
								}

							}
, 							{
								"box" : 								{
									"fontname" : "Arial",
									"fontsize" : 9.0,
									"id" : "obj-14",
									"maxclass" : "newobj",
									"numinlets" : 1,
									"numoutlets" : 3,
									"outlettype" : [ "", "bang", "" ],
									"patching_rect" : [ 13.0, 37.0, 160.0, 17.0 ],
									"text" : "t l b l"
								}

							}
, 							{
								"box" : 								{
									"description" : "fmat",
									"fontname" : "Geneva",
									"fontsize" : 9.0,
									"ftm_scope" : 0,
									"id" : "obj-15",
									"maxclass" : "ftm.object",
									"name" : "input1_tau1",
									"numinlets" : 1,
									"numoutlets" : 2,
									"outlettype" : [ "", "" ],
									"patching_rect" : [ 214.0, 264.0, 93.987793, 18.0 ],
									"persistence" : 0,
									"presentation_rect" : [ 214.0, 264.0, 93.987793, 18.0 ],
									"scope" : 0,
									"text" : "fmat"
								}

							}
, 							{
								"box" : 								{
									"fontname" : "Arial",
									"fontsize" : 9.0,
									"id" : "obj-16",
									"maxclass" : "newobj",
									"numinlets" : 2,
									"numoutlets" : 1,
									"outlettype" : [ "" ],
									"patching_rect" : [ 163.0, 81.0, 135.0, 17.0 ],
									"saved_object_attributes" : 									{
										"ftm_scope" : 0
									}
,
									"text" : "ftm.copy fmat $input1_tau1"
								}

							}
, 							{
								"box" : 								{
									"comment" : "",
									"id" : "obj-17",
									"maxclass" : "inlet",
									"numinlets" : 0,
									"numoutlets" : 1,
									"outlettype" : [ "" ],
									"patching_rect" : [ 13.0, 17.0, 15.0, 15.0 ]
								}

							}
, 							{
								"box" : 								{
									"id" : "obj-18",
									"maxclass" : "fpic",
									"numinlets" : 1,
									"numoutlets" : 0,
									"patching_rect" : [ 9.0, 359.0, 318.0, 57.0 ],
									"pic" : "AC.png"
								}

							}
, 							{
								"box" : 								{
									"fontname" : "Arial",
									"fontsize" : 9.0,
									"frgb" : [ 0.0, 0.0, 0.0, 1.0 ],
									"hidden" : 1,
									"id" : "obj-19",
									"linecount" : 2,
									"maxclass" : "comment",
									"numinlets" : 1,
									"numoutlets" : 0,
									"patching_rect" : [ 331.0, 374.0, 194.0, 27.0 ],
									"text" : "<math>hat R_{xx}(tau)=frac{1}{T-tau}sum_{nu =0}^{T-tau -1}x(nu)x(nu+tau) </math>"
								}

							}
, 							{
								"box" : 								{
									"fontname" : "Arial",
									"fontsize" : 9.0,
									"frgb" : [ 0.0, 0.0, 0.0, 1.0 ],
									"id" : "obj-20",
									"maxclass" : "comment",
									"numinlets" : 1,
									"numoutlets" : 0,
									"patching_rect" : [ 9.0, 342.0, 100.0, 17.0 ],
									"text" : "AC(1) / AC(0)"
								}

							}
, 							{
								"box" : 								{
									"fontname" : "Arial",
									"fontsize" : 9.0,
									"frgb" : [ 0.0, 0.0, 0.0, 1.0 ],
									"id" : "obj-21",
									"maxclass" : "comment",
									"numinlets" : 1,
									"numoutlets" : 0,
									"patching_rect" : [ 325.0, 26.0, 100.0, 17.0 ],
									"text" : "energy (=AC(0))"
								}

							}
 ],
						"lines" : [ 							{
								"patchline" : 								{
									"destination" : [ "obj-5", 0 ],
									"hidden" : 0,
									"midpoints" : [  ],
									"source" : [ "obj-1", 0 ]
								}

							}
, 							{
								"patchline" : 								{
									"destination" : [ "obj-1", 1 ],
									"hidden" : 0,
									"midpoints" : [  ],
									"source" : [ "obj-10", 0 ]
								}

							}
, 							{
								"patchline" : 								{
									"destination" : [ "obj-2", 0 ],
									"hidden" : 0,
									"midpoints" : [  ],
									"source" : [ "obj-10", 0 ]
								}

							}
, 							{
								"patchline" : 								{
									"destination" : [ "obj-6", 0 ],
									"hidden" : 0,
									"midpoints" : [  ],
									"source" : [ "obj-11", 0 ]
								}

							}
, 							{
								"patchline" : 								{
									"destination" : [ "obj-1", 0 ],
									"hidden" : 0,
									"midpoints" : [  ],
									"source" : [ "obj-12", 0 ]
								}

							}
, 							{
								"patchline" : 								{
									"destination" : [ "obj-11", 0 ],
									"hidden" : 0,
									"midpoints" : [  ],
									"source" : [ "obj-12", 0 ]
								}

							}
, 							{
								"patchline" : 								{
									"destination" : [ "obj-12", 0 ],
									"hidden" : 0,
									"midpoints" : [  ],
									"source" : [ "obj-14", 0 ]
								}

							}
, 							{
								"patchline" : 								{
									"destination" : [ "obj-13", 0 ],
									"hidden" : 0,
									"midpoints" : [  ],
									"source" : [ "obj-14", 1 ]
								}

							}
, 							{
								"patchline" : 								{
									"destination" : [ "obj-16", 0 ],
									"hidden" : 0,
									"midpoints" : [  ],
									"source" : [ "obj-14", 2 ]
								}

							}
, 							{
								"patchline" : 								{
									"destination" : [ "obj-14", 0 ],
									"hidden" : 0,
									"midpoints" : [  ],
									"source" : [ "obj-17", 0 ]
								}

							}
, 							{
								"patchline" : 								{
									"destination" : [ "obj-4", 0 ],
									"hidden" : 0,
									"midpoints" : [  ],
									"source" : [ "obj-2", 1 ]
								}

							}
, 							{
								"patchline" : 								{
									"destination" : [ "obj-7", 0 ],
									"hidden" : 0,
									"midpoints" : [  ],
									"source" : [ "obj-2", 0 ]
								}

							}
, 							{
								"patchline" : 								{
									"destination" : [ "obj-11", 1 ],
									"hidden" : 0,
									"midpoints" : [  ],
									"source" : [ "obj-3", 0 ]
								}

							}
, 							{
								"patchline" : 								{
									"destination" : [ "obj-3", 0 ],
									"hidden" : 0,
									"midpoints" : [  ],
									"source" : [ "obj-4", 0 ]
								}

							}
, 							{
								"patchline" : 								{
									"destination" : [ "obj-7", 1 ],
									"hidden" : 0,
									"midpoints" : [  ],
									"source" : [ "obj-4", 0 ]
								}

							}
, 							{
								"patchline" : 								{
									"destination" : [ "obj-8", 0 ],
									"hidden" : 0,
									"midpoints" : [  ],
									"source" : [ "obj-6", 1 ]
								}

							}
, 							{
								"patchline" : 								{
									"destination" : [ "obj-9", 0 ],
									"hidden" : 0,
									"midpoints" : [  ],
									"source" : [ "obj-6", 0 ]
								}

							}
, 							{
								"patchline" : 								{
									"destination" : [ "obj-8", 1 ],
									"hidden" : 0,
									"midpoints" : [  ],
									"source" : [ "obj-7", 0 ]
								}

							}
, 							{
								"patchline" : 								{
									"destination" : [ "obj-9", 1 ],
									"hidden" : 0,
									"midpoints" : [  ],
									"source" : [ "obj-8", 0 ]
								}

							}
 ]
					}
,
					"patching_rect" : [ 260.0, 150.0, 37.0, 17.0 ],
					"saved_object_attributes" : 					{
						"default_fontface" : 0,
						"globalpatchername" : "",
						"default_fontname" : "Arial",
						"fontface" : 0,
						"fontsize" : 12.0,
						"default_fontsize" : 12.0,
						"fontname" : "Arial"
					}
,
					"text" : "p AC1"
				}

			}
, 			{
				"box" : 				{
					"color" : [ 1.0, 0.360784, 0.682353, 1.0 ],
					"fontname" : "Arial",
					"fontsize" : 9.0,
					"id" : "obj-51",
					"maxclass" : "newobj",
					"numinlets" : 1,
					"numoutlets" : 1,
					"outlettype" : [ "" ],
					"patcher" : 					{
						"fileversion" : 1,
						"rect" : [ 457.0, 582.0, 410.0, 202.0 ],
						"bglocked" : 0,
						"defrect" : [ 457.0, 582.0, 410.0, 202.0 ],
						"openrect" : [ 0.0, 0.0, 0.0, 0.0 ],
						"openinpresentation" : 0,
						"default_fontsize" : 12.0,
						"default_fontface" : 0,
						"default_fontname" : "Arial",
						"gridonopen" : 0,
						"gridsize" : [ 10.0, 10.0 ],
						"gridsnaponopen" : 0,
						"toolbarvisible" : 1,
						"boxanimatetime" : 200,
						"imprint" : 0,
						"enablehscroll" : 1,
						"enablevscroll" : 1,
						"devicewidth" : 0.0,
						"boxes" : [ 							{
								"box" : 								{
									"comment" : "",
									"id" : "obj-1",
									"maxclass" : "outlet",
									"numinlets" : 1,
									"numoutlets" : 0,
									"patching_rect" : [ 236.0, 128.0, 15.0, 15.0 ]
								}

							}
, 							{
								"box" : 								{
									"comment" : "",
									"id" : "obj-2",
									"maxclass" : "inlet",
									"numinlets" : 0,
									"numoutlets" : 1,
									"outlettype" : [ "" ],
									"patching_rect" : [ 236.0, 33.0, 15.0, 15.0 ]
								}

							}
, 							{
								"box" : 								{
									"id" : "obj-3",
									"maxclass" : "fpic",
									"numinlets" : 1,
									"numoutlets" : 0,
									"patching_rect" : [ 5.0, 44.0, 102.0, 52.0 ],
									"pic" : "energie.png"
								}

							}
, 							{
								"box" : 								{
									"#init" : "",
									"#loadbang" : 0,
									"#triggerall" : 0,
									"#untuple" : 0,
									"fontname" : "Geneva",
									"fontsize" : 9.0,
									"ftm_scope" : 2,
									"id" : "obj-4",
									"maxclass" : "ftm.mess",
									"numinlets" : 2,
									"numoutlets" : 1,
									"outlettype" : [ "" ],
									"patching_rect" : [ 236.0, 81.0, 61.902832, 17.0 ],
									"presentation_rect" : [ 236.0, 81.0, 61.902832, 17.0 ],
									"text" : [ "_($1 dot $1 )" ]
								}

							}
, 							{
								"box" : 								{
									"fontname" : "Arial",
									"fontsize" : 9.0,
									"frgb" : [ 0.0, 0.0, 0.0, 1.0 ],
									"hidden" : 1,
									"id" : "obj-5",
									"maxclass" : "comment",
									"numinlets" : 1,
									"numoutlets" : 0,
									"patching_rect" : [ 6.0, 100.0, 183.0, 17.0 ],
									"text" : "<math>sum_{n=1}^{N} x_n^2</math>"
								}

							}
, 							{
								"box" : 								{
									"fontname" : "Arial",
									"fontsize" : 9.0,
									"frgb" : [ 0.0, 0.0, 0.0, 1.0 ],
									"id" : "obj-6",
									"maxclass" : "comment",
									"numinlets" : 1,
									"numoutlets" : 0,
									"patching_rect" : [ 6.0, 26.0, 100.0, 17.0 ],
									"text" : "ENERGY"
								}

							}
 ],
						"lines" : [ 							{
								"patchline" : 								{
									"destination" : [ "obj-4", 0 ],
									"hidden" : 0,
									"midpoints" : [  ],
									"source" : [ "obj-2", 0 ]
								}

							}
, 							{
								"patchline" : 								{
									"destination" : [ "obj-1", 0 ],
									"hidden" : 0,
									"midpoints" : [  ],
									"source" : [ "obj-4", 0 ]
								}

							}
 ]
					}
,
					"patching_rect" : [ 310.0, 120.0, 50.0, 17.0 ],
					"saved_object_attributes" : 					{
						"default_fontface" : 0,
						"globalpatchername" : "",
						"default_fontname" : "Arial",
						"fontface" : 0,
						"fontsize" : 12.0,
						"default_fontsize" : 12.0,
						"fontname" : "Arial"
					}
,
					"text" : "p energie"
				}

			}
, 			{
				"box" : 				{
					"fontname" : "Arial",
					"fontsize" : 9.0,
					"frgb" : [ 0.0, 0.0, 0.0, 1.0 ],
					"id" : "obj-52",
					"maxclass" : "comment",
					"numinlets" : 1,
					"numoutlets" : 0,
					"patching_rect" : [ 20.0, 10.0, 75.0, 17.0 ],
					"text" : "signal frame"
				}

			}
, 			{
				"box" : 				{
					"comment" : "sig. vect",
					"id" : "obj-53",
					"maxclass" : "inlet",
					"numinlets" : 0,
					"numoutlets" : 1,
					"outlettype" : [ "" ],
					"patching_rect" : [ 0.0, 10.0, 15.0, 15.0 ]
				}

			}
, 			{
				"box" : 				{
					"fontname" : "Arial",
					"fontsize" : 9.0,
					"frgb" : [ 0.0, 0.0, 0.0, 1.0 ],
					"id" : "obj-54",
					"maxclass" : "comment",
					"numinlets" : 1,
					"numoutlets" : 0,
					"patching_rect" : [ 360.0, 120.0, 126.0, 17.0 ],
					"text" : "correction erreur matlab"
				}

			}
, 			{
				"box" : 				{
					"fontname" : "Arial",
					"fontsize" : 9.0,
					"frgb" : [ 0.0, 0.0, 0.0, 1.0 ],
					"id" : "obj-55",
					"linecount" : 2,
					"maxclass" : "comment",
					"numinlets" : 1,
					"numoutlets" : 0,
					"patching_rect" : [ 398.0, 171.0, 107.0, 27.0 ],
					"text" : "INIT: num. preset with good band values"
				}

			}
, 			{
				"box" : 				{
					"fontname" : "Arial",
					"fontsize" : 12.0,
					"frgb" : [ 0.0, 0.0, 0.0, 1.0 ],
					"id" : "obj-56",
					"maxclass" : "comment",
					"numinlets" : 1,
					"numoutlets" : 0,
					"patching_rect" : [ 120.0, 10.0, 235.0, 20.0 ],
					"text" : "Descriptor calculations by Julien Bloit"
				}

			}
 ],
		"lines" : [ 			{
				"patchline" : 				{
					"destination" : [ "obj-26", 0 ],
					"hidden" : 0,
					"midpoints" : [  ],
					"source" : [ "obj-11", 0 ]
				}

			}
, 			{
				"patchline" : 				{
					"destination" : [ "obj-49", 0 ],
					"hidden" : 0,
					"midpoints" : [  ],
					"source" : [ "obj-18", 0 ]
				}

			}
, 			{
				"patchline" : 				{
					"destination" : [ "obj-8", 0 ],
					"hidden" : 0,
					"midpoints" : [ 9.5, 110.500732, 509.0, 110.500732 ],
					"source" : [ "obj-18", 0 ]
				}

			}
, 			{
				"patchline" : 				{
					"destination" : [ "obj-1", 0 ],
					"hidden" : 0,
					"midpoints" : [  ],
					"source" : [ "obj-2", 0 ]
				}

			}
, 			{
				"patchline" : 				{
					"destination" : [ "obj-25", 0 ],
					"hidden" : 0,
					"midpoints" : [  ],
					"source" : [ "obj-24", 0 ]
				}

			}
, 			{
				"patchline" : 				{
					"destination" : [ "obj-19", 0 ],
					"hidden" : 0,
					"midpoints" : [  ],
					"source" : [ "obj-30", 4 ]
				}

			}
, 			{
				"patchline" : 				{
					"destination" : [ "obj-2", 0 ],
					"hidden" : 0,
					"midpoints" : [  ],
					"source" : [ "obj-30", 1 ]
				}

			}
, 			{
				"patchline" : 				{
					"destination" : [ "obj-31", 0 ],
					"hidden" : 0,
					"midpoints" : [  ],
					"source" : [ "obj-30", 0 ]
				}

			}
, 			{
				"patchline" : 				{
					"destination" : [ "obj-50", 0 ],
					"hidden" : 0,
					"midpoints" : [  ],
					"source" : [ "obj-30", 2 ]
				}

			}
, 			{
				"patchline" : 				{
					"destination" : [ "obj-51", 0 ],
					"hidden" : 0,
					"midpoints" : [  ],
					"source" : [ "obj-30", 3 ]
				}

			}
, 			{
				"patchline" : 				{
					"destination" : [ "obj-32", 0 ],
					"hidden" : 0,
					"midpoints" : [  ],
					"source" : [ "obj-31", 0 ]
				}

			}
, 			{
				"patchline" : 				{
					"destination" : [ "obj-18", 0 ],
					"hidden" : 0,
					"midpoints" : [  ],
					"source" : [ "obj-32", 0 ]
				}

			}
, 			{
				"patchline" : 				{
					"destination" : [ "obj-21", 0 ],
					"hidden" : 0,
					"midpoints" : [  ],
					"source" : [ "obj-33", 0 ]
				}

			}
, 			{
				"patchline" : 				{
					"destination" : [ "obj-22", 0 ],
					"hidden" : 0,
					"midpoints" : [  ],
					"source" : [ "obj-35", 0 ]
				}

			}
, 			{
				"patchline" : 				{
					"destination" : [ "obj-48", 1 ],
					"hidden" : 0,
					"midpoints" : [  ],
					"source" : [ "obj-36", 0 ]
				}

			}
, 			{
				"patchline" : 				{
					"destination" : [ "obj-46", 2 ],
					"hidden" : 0,
					"midpoints" : [  ],
					"source" : [ "obj-38", 0 ]
				}

			}
, 			{
				"patchline" : 				{
					"destination" : [ "obj-46", 1 ],
					"hidden" : 0,
					"midpoints" : [  ],
					"source" : [ "obj-39", 0 ]
				}

			}
, 			{
				"patchline" : 				{
					"destination" : [ "obj-57", 0 ],
					"hidden" : 0,
					"midpoints" : [  ],
					"source" : [ "obj-43", 0 ]
				}

			}
, 			{
				"patchline" : 				{
					"destination" : [ "obj-36", 0 ],
					"hidden" : 0,
					"midpoints" : [  ],
					"source" : [ "obj-44", 0 ]
				}

			}
, 			{
				"patchline" : 				{
					"destination" : [ "obj-23", 0 ],
					"hidden" : 0,
					"midpoints" : [  ],
					"source" : [ "obj-46", 0 ]
				}

			}
, 			{
				"patchline" : 				{
					"destination" : [ "obj-35", 0 ],
					"hidden" : 0,
					"midpoints" : [  ],
					"source" : [ "obj-48", 0 ]
				}

			}
, 			{
				"patchline" : 				{
					"destination" : [ "obj-33", 0 ],
					"hidden" : 0,
					"midpoints" : [  ],
					"source" : [ "obj-49", 2 ]
				}

			}
, 			{
				"patchline" : 				{
					"destination" : [ "obj-46", 0 ],
					"hidden" : 0,
					"midpoints" : [  ],
					"source" : [ "obj-49", 0 ]
				}

			}
, 			{
				"patchline" : 				{
					"destination" : [ "obj-48", 0 ],
					"hidden" : 0,
					"midpoints" : [  ],
					"source" : [ "obj-49", 1 ]
				}

			}
, 			{
				"patchline" : 				{
					"destination" : [ "obj-7", 0 ],
					"hidden" : 0,
					"midpoints" : [  ],
					"source" : [ "obj-5", 0 ]
				}

			}
, 			{
				"patchline" : 				{
					"destination" : [ "obj-20", 0 ],
					"hidden" : 0,
					"midpoints" : [  ],
					"source" : [ "obj-50", 0 ]
				}

			}
, 			{
				"patchline" : 				{
					"destination" : [ "obj-34", 0 ],
					"hidden" : 0,
					"midpoints" : [  ],
					"source" : [ "obj-51", 0 ]
				}

			}
, 			{
				"patchline" : 				{
					"destination" : [ "obj-50", 1 ],
					"hidden" : 0,
					"midpoints" : [  ],
					"source" : [ "obj-51", 0 ]
				}

			}
, 			{
				"patchline" : 				{
					"destination" : [ "obj-30", 0 ],
					"hidden" : 0,
					"midpoints" : [  ],
					"source" : [ "obj-53", 0 ]
				}

			}
, 			{
				"patchline" : 				{
					"destination" : [ "obj-48", 2 ],
					"hidden" : 0,
					"midpoints" : [  ],
					"source" : [ "obj-57", 0 ]
				}

			}
, 			{
				"patchline" : 				{
					"destination" : [ "obj-24", 0 ],
					"hidden" : 0,
					"midpoints" : [  ],
					"source" : [ "obj-6", 1 ]
				}

			}
, 			{
				"patchline" : 				{
					"destination" : [ "obj-47", 0 ],
					"hidden" : 0,
					"midpoints" : [  ],
					"source" : [ "obj-6", 0 ]
				}

			}
, 			{
				"patchline" : 				{
					"destination" : [ "obj-6", 0 ],
					"hidden" : 0,
					"midpoints" : [  ],
					"source" : [ "obj-7", 0 ]
				}

			}
, 			{
				"patchline" : 				{
					"destination" : [ "obj-38", 0 ],
					"hidden" : 0,
					"midpoints" : [  ],
					"source" : [ "obj-9", 0 ]
				}

			}
, 			{
				"patchline" : 				{
					"destination" : [ "obj-39", 0 ],
					"hidden" : 0,
					"midpoints" : [  ],
					"source" : [ "obj-9", 0 ]
				}

			}
, 			{
				"patchline" : 				{
					"destination" : [ "obj-43", 0 ],
					"hidden" : 0,
					"midpoints" : [  ],
					"source" : [ "obj-9", 0 ]
				}

			}
, 			{
				"patchline" : 				{
					"destination" : [ "obj-44", 0 ],
					"hidden" : 0,
					"midpoints" : [  ],
					"source" : [ "obj-9", 0 ]
				}

			}
 ]
	}

}
